<svg id="Layer_1" data-name="Layer 1" xmlns="http://www.w3.org/2000/svg" viewBox="0 0 334.54 417.97"><defs><style>.cls-1{fill:#0d2608;}.cls-2{fill:#133f0a;}.cls-3{fill:#205611;}.cls-4{fill:#5c5341;}.cls-5{fill:#42392b;opacity:0.6;}.cls-6{fill:#0e2d08;}.cls-7{fill:#19490d;}</style></defs><title>tree</title><ellipse class="cls-1" cx="187.55" cy="334.22" rx="12.88" ry="5.34" transform="translate(-86.91 66.74) rotate(-16.44)"/><ellipse class="cls-2" cx="187.29" cy="334.38" rx="10.1" ry="4.19" transform="translate(-86.97 66.67) rotate(-16.44)"/><ellipse class="cls-3" cx="185.12" cy="334.65" rx="6.39" ry="2.65" transform="translate(-87.14 66.07) rotate(-16.44)"/><ellipse class="cls-1" cx="125.77" cy="280.04" rx="5.3" ry="12.79" transform="translate(-179.57 311.87) rotate(-71.77)"/><ellipse class="cls-2" cx="126.07" cy="280.06" rx="4.16" ry="10.03" transform="translate(-179.37 312.17) rotate(-71.77)"/><ellipse class="cls-3" cx="127.99" cy="281.06" rx="2.63" ry="6.35" transform="translate(-179 314.68) rotate(-71.77)"/><polygon class="cls-4" points="184.15 334.22 184.81 335.94 166.56 344.17 168.78 339.05 184.15 334.22"/><polygon class="cls-5" points="168.53 342.03 167.18 343.89 184.81 335.94 184.56 335.3 168.53 342.03"/><polygon class="cls-4" points="155.5 292.34 129.35 282.38 128.54 280.04 154.28 287.53 155.5 292.34"/><polygon class="cls-5" points="129.15 281.78 154.7 289.92 155.5 292.34 129.35 282.38 129.15 281.78"/><ellipse class="cls-1" cx="191.19" cy="249.09" rx="11.26" ry="4.67" transform="translate(-91.69 112.8) rotate(-26.77)"/><ellipse class="cls-2" cx="191" cy="249.27" rx="8.83" ry="3.66" transform="translate(-91.8 112.73) rotate(-26.77)"/><ellipse class="cls-3" cx="189.18" cy="249.85" rx="5.59" ry="2.32" transform="translate(-92.25 111.97) rotate(-26.77)"/><polygon class="cls-4" points="186.97 249.09 187.55 252.13 165.7 271.16 167.13 264.46 186.97 249.09"/><polygon class="cls-4" points="146.45 227.82 144.87 228.77 154.12 246.52 155.54 241.13 146.45 227.82"/><path class="cls-4" d="M175.69,415.61s-9.58,2.56-14.82,2.35c-6.22-.25-13.83-4-13.83-4l10-248.82,8.21-.92L169.44,333Z"/><path class="cls-5" d="M175.69,415.61a84,84,0,0,1-9.38,1.93c-1.33.12-2.62-80.31-2.35-84.08s0.13-125.83.3-129.09l2,1.26S169,322.92,169.44,333C170.8,351.34,175.69,415.61,175.69,415.61Z"/><polygon class="cls-5" points="187.3 250.8 167.75 267.08 167.8 269.31 187.55 252.12 187.3 250.8"/><polygon class="cls-5" points="153.9 243.62 153.81 245.92 144.87 228.77 145.45 228.42 153.9 243.62"/><path class="cls-6" d="M231.73,186.29c58.55,32,95.65-9.92,100.71-30.45,12.88-52.24-40.6-89.29-76.27-77.24,10.69-35.47-58.79-55.48-85.34-22.69C105.25-27.33,6.87,31.43,35,73.58c-82.36,30.31,2.34,122.86,43.43,92.34C92,216.74,201.28,232.88,231.73,186.29Z"/><path class="cls-2" d="M232.87,178.46c58.55,32,94.54-10.33,99.88-30.78C345,101,291.84,66.56,256.17,78.6,266.86,43.14,198.52,15.29,172,48.08c-65.58-83.24-159.59-17-137,25.5-83.54,34.35,3.49,115,44.58,84.51C93.12,208.91,202.42,225.06,232.87,178.46Z"/><path class="cls-7" d="M232.89,165.61c58.55,32,98.2-7.85,101.11-28.79,5.47-39.39-42.16-70.27-77.83-58.22,10.69-35.47-57.23-74.5-83.78-41.71C106.81-46.35,6.87,31.43,35,73.58c-83.54,34.35,5,101,46.14,70.44C94.68,194.84,202.44,212.2,232.89,165.61Z"/></svg>