<svg id="Layer_1" data-name="Layer 1" xmlns="http://www.w3.org/2000/svg" viewBox="0 0 352.89 454.89"><defs><style>.cls-1{fill:#283d26;}.cls-2{fill:#31492e;}.cls-3{fill:#3e593a;}.cls-4{fill:#575140;}.cls-5{fill:#42392b;opacity:0.6;}</style></defs><title>tree</title><ellipse class="cls-1" cx="116.77" cy="282.38" rx="11.99" ry="28.92" transform="matrix(0.26, -0.97, 0.97, 0.26, -186.13, 322.75)"/><ellipse class="cls-2" cx="118.58" cy="282.55" rx="9.02" ry="21.77" transform="translate(-184.94 324.62) rotate(-75.12)"/><ellipse class="cls-3" cx="123.27" cy="283.01" rx="5.71" ry="13.77" transform="translate(-181.91 329.49) rotate(-75.12)"/><ellipse class="cls-1" cx="227.64" cy="393.82" rx="16.99" ry="7.04" transform="translate(-164.6 163.47) rotate(-29.55)"/><ellipse class="cls-2" cx="226.82" cy="394.5" rx="12.78" ry="5.3" transform="translate(-165.04 163.15) rotate(-29.55)"/><ellipse class="cls-3" cx="224.66" cy="396.23" rx="8.09" ry="3.35" transform="translate(-166.18 162.31) rotate(-29.55)"/><polygon class="cls-4" points="129.34 281.19 129.73 287.46 163.03 306.82 159.76 294.24 129.34 281.19"/><polygon class="cls-4" points="134.62 251.85 133.86 255.84 162.56 280.85 160.68 272.04 134.62 251.85"/><polygon class="cls-4" points="222.91 238.49 226.71 242.01 190.99 285.54 190.19 269.87 222.91 238.49"/><path class="cls-4" d="M140.27,449.18a132,132,0,0,0,21,5.22c10.19,1.52,31.63-.8,38.74-3.2l8.39-3.67L184.6,195.81l-19.54-.93-9.93,170.75Z"/><path class="cls-5" d="M140.27,449.18s11.7,3.75,15.94,4.32c1.9,0.25,10-81.92,9.65-85.73s1.35-126.93,1-130.2-4.27.93-4.27,0.93-6.84,116.92-7.44,127.14Z"/><path class="cls-1" d="M140.77,224.46c-20.62,30.36-91,29.14-91,18.5s12.09-29.87,24.67-29.87C9,196-19.74,109.72,14.64,122.94c39.78,15.3,41.06,14.85,41.06,14.85S22.7,76,80.48,98.63c-69.16-58.14,23.82-65.8,37-43,10.89-77.92,65.89-69.28,93.19-2.85C271.2-4,311.15,22.1,256.22,86c23.8-10.42,41,13.74,37.47,18.81,35.63-39.61,112.07-14,2.16,50.58,98,3,21.19,46.8-27.93,40.22,72.81,22.83,16.59,64.51-61.74,36.33C200.64,248.67,141.83,244.18,140.77,224.46Z"/><path class="cls-2" d="M141,216.11C120.37,246.47,49.94,251,49.94,240.39s14.36-28.5,24.46-27.3C9.93,197.33-19.74,109.72,14.64,122.94c39.78,15.3,41.06,14.85,41.06,14.85S22.7,76,80.48,98.63c-69.16-58.14,23.82-65.8,37-43,10.89-77.92,65.89-69.28,93.19-2.85C271.2-4,311.15,22.1,256.22,86c23.8-10.42,41,13.74,37.47,18.81,35.63-39.61,112.07-14,2.16,50.58,98,3,21.19,46.8-27.93,40.22,70.29,22.71,15.53,56.67-62.81,28.49C199.57,240.83,142.06,235.82,141,216.11Z"/><path class="cls-3" d="M140.27,201.44c-20.62,30.36-78,38.41-75.69,28,2.22-9.78,5.75-16.09,14.3-16.69-70.12-14.7-98.62-103.07-64.25-89.85,39.78,15.3,41.06,14.85,41.06,14.85S22.7,76,80.48,98.63c-69.16-58.14,23.82-65.8,37-43,10.89-77.92,65.89-69.28,93.19-2.85C271.2-4,311.15,22.1,256.22,86c23.8-10.42,41,13.74,37.47,18.81,35.63-39.61,112.07-14,2.16,50.58,101.46,4.25,17.51,44.4-31.53,39.27,56.72,24.67,10.13,35.17-68.2,7C190.58,218.37,141.33,221.16,140.27,201.44Z"/><polygon class="cls-5" points="129.62 285.63 158.83 301.59 158.66 304.31 129.73 287.46 129.62 285.63"/><polygon class="cls-4" points="199.66 414.39 223.42 398.98 222.07 395.99 196.41 407.51 199.66 414.39"/><polygon class="cls-5" points="222.64 397.25 204.73 408.25 204.98 410.9 223.42 398.98 222.64 397.25"/><polygon class="cls-5" points="134.19 254.11 160.37 275.92 160.18 278.75 133.86 255.84 134.19 254.11"/><polygon class="cls-5" points="192.48 278.85 192.88 283.24 226.71 242 225.17 240.58 192.48 278.85"/></svg>