<svg id="Layer_1" data-name="Layer 1" xmlns="http://www.w3.org/2000/svg" viewBox="0 0 346.19 386.29"><defs><style>.cls-1{fill:#544834;}.cls-2{fill:#42392b;opacity:0.6;}.cls-3{fill:#1e280e;}.cls-4{fill:#2a3814;}.cls-5{fill:#37471b;}</style></defs><title>tree</title><polygon class="cls-1" points="190.49 345.31 210.97 330 209.2 327.9 187.2 341.64 190.49 345.31"/><polygon class="cls-2" points="210.19 329.07 193.12 341.42 193.96 342.72 210.97 330 210.19 329.07"/><polygon class="cls-1" points="219 223.53 218.64 229.41 187.43 247.54 190.5 235.76 219 223.53"/><polygon class="cls-1" points="214.06 196.05 214.77 199.78 187.88 223.21 189.64 214.96 214.06 196.05"/><polygon class="cls-1" points="131.32 183.52 127.77 186.82 161.24 227.6 161.99 212.93 131.32 183.52"/><path class="cls-1" d="M208.76,380.94A123.65,123.65,0,0,1,189,385.84c-9.55,1.42-29.64-.75-36.3-3l-7.86-3.43,22.35-235.88,18.31-.87,9.3,160Z"/><path class="cls-2" d="M208.76,380.94s-11,3.51-14.93,4c-1.78.24-9.41-76.76-9-80.33s-0.35-104.35,0-107.41,4,0.87,4,.87,5.5,95,6.05,104.55Z"/><ellipse class="cls-3" cx="121.29" cy="248.52" rx="10.78" ry="26.01" transform="translate(-132.77 357.73) rotate(-87.25)"/><ellipse class="cls-4" cx="121.88" cy="248.39" rx="8.45" ry="20.39" transform="translate(-132.07 358.2) rotate(-87.25)"/><ellipse class="cls-5" cx="126.2" cy="249.3" rx="5.35" ry="12.91" transform="translate(-128.87 363.38) rotate(-87.25)"/><polygon class="cls-1" points="160.34 261.95 135.58 252.43 136.43 248.52 161.99 255.01 160.34 261.95"/><polygon class="cls-2" points="218.75 227.7 191.37 242.65 191.54 245.2 218.64 229.41 218.75 227.7"/><polygon class="cls-2" points="135.96 250.69 156.44 258.07 156.15 260.34 135.58 252.43 135.96 250.69"/><polygon class="cls-2" points="209.77 202.29 189.97 218.56 190.15 221.21 209.98 203.99 209.77 202.29"/><polygon class="cls-2" points="159.85 221.34 159.47 225.45 132.62 192.86 134.41 191.69 159.85 221.34"/><path class="cls-3" d="M250.14,12.8C271.28,18.67,314.55,36.61,317,79c1.63,28-8.18,38.93-14.18,46.79,62.74-13.16,55.36,81.82-9.08,90.7-82.12,11.32-89-14-89-20.76-3,7.77-51.7,6.55-52.31-15.78-7,.39-86.27,91.15-146.56-21.52-22.1-41.3,23.34-67.4,45.27-60.09C27.48,85.3,66.74,31,109,59.45c20.18-5.85,26.37-30,29.41-18.23C143.21,8.62,209.49,1.51,250.14,12.8Z"/><path class="cls-4" d="M250.14,12.8c21.14,5.87,63.4,22.58,65.86,65,1.63,28-7.16,40.16-13.16,48,60-12.21,55.1,73.91-9.34,82.79C211.38,219.89,211,193.93,211,187.18c-3,7.77-53.93,3.67-54.54-18.66-7,.39-84.43,97.46-144.72-15.2-22.1-41.3,18-59.46,39.46-55C27.48,85.3,66.74,31,109,59.45c9.46-9.64,26.37-30,29.41-18.23C143.21,8.62,209.49,1.51,250.14,12.8Z"/><path class="cls-5" d="M253,5c21.14,5.87,63.4,22.58,65.86,65,1.63,28-4.57,40.07-10.57,47.93,47.78-2.38,51.07,72.42-13.72,78.17-71.2,6.32-75.78-15.5-75.78-22.24-3,7.77-61.7,5.13-62.31-17.2-7,.39-79.66,79.82-137.69-12.75C-3,109.17,30.81,92.19,51.18,98.33c-23.7-13,18.38-75.09,60.6-46.67-16-21.71,26.37-30,29.41-18.23C146,0.83,212.31-6.28,253,5Z"/></svg>