<svg id="Layer_1" data-name="Layer 1" xmlns="http://www.w3.org/2000/svg" viewBox="0 0 328.88 384.15"><defs><style>.cls-1{fill:#544834;}.cls-2{fill:#42392b;opacity:0.6;}.cls-3{fill:#172307;}.cls-4{fill:#22330a;}.cls-5{fill:#2d3f0d;}</style></defs><title>tree</title><path class="cls-1" d="M118.6,252.89l0.39,6.33,31.92,18.55a0.83,0.83,0,0,0,1.22-.92l-2.7-10.39a0.83,0.83,0,0,0-.47-0.55Z"/><path class="cls-1" d="M123.93,223.27l-0.76,4,27.12,23.63a0.83,0.83,0,0,0,1.35-.8l-1.32-6.17a0.83,0.83,0,0,0-.3-0.48Z"/><path class="cls-1" d="M213.11,209.77l3.84,3.55-34.72,42.31a0.83,0.83,0,0,1-1.46-.48l-0.69-13.31a0.83,0.83,0,0,1,.25-0.64Z"/><path class="cls-1" d="M126.34,379s13.79,3.41,24.56,4.74c10.3,1.28,31.95-.67,39.12-2.68L198.5,378,183.75,165.72h-30L141.34,308.81Z"/><path class="cls-2" d="M126.33,379c2.06,0.57,12.67,2.89,16.45,3.52,1.9,0.32,9.78-68.71,9.39-71.91s5.92-122.07,5.54-124.82-5.62.62-5.62,0.62S142,299.88,141.33,308.73a0.69,0.69,0,0,1,0,.1Z"/><polygon class="cls-2" points="123.49 225.56 146.89 244.87 146.69 247.73 123.19 227.33 123.49 225.56"/><polygon class="cls-2" points="189.08 242.3 189.39 246.89 216.94 213.32 215.26 211.76 189.08 242.3"/><polygon class="cls-2" points="144.66 270.16 144.33 273.92 118.97 259.21 118.86 257.02 144.66 270.16"/><path class="cls-3" d="M88.69,21.56C69,27,28.67,43.75,26.38,83.24c-1.52,26.14,8.85,32.8,14.44,40.12-58.46-12.26-52.43,77.26,7.23,88C119.41,224.2,131,198.31,131,192c2.78,7.24,63.92,11.4,64.48-9.41,6.53,0.36,86.44,41.71,127.42-22.22,23.56-36.75-28.34-65.93-48.77-59.12C296.18,89.12,259.6,38.55,220.25,65c-18.81-5.46-24.57-28-27.41-17C188.34,17.66,126.57,11,88.69,21.56Z"/><path class="cls-4" d="M88.69,20.76C69,26.23,29.62,41.8,27.32,81.29,25.8,107.43,33.45,116,39,123.35c-55.88-11.38-49.93,73.19,6.77,82.73,55.6,9.36,83-14.29,83-20.57,2.78,7.24,66.07,7.76,66.64-13,6.53,0.36,82.61,34.62,125.18-17.35,27.66-33.77-26.53-58.82-46.53-54.64,22.09-12.15-14.5-62.71-53.85-36.23-8.82-9-24.57-28-27.41-17C188.34,16.86,126.57,10.24,88.69,20.76Z"/><path class="cls-5" d="M87.62,6.16C75.32,11.32,27,34.54,24.69,74c-1.52,26.14,4.26,37.34,9.85,44.67-44.52-2.21-47.18,70.15,9.72,75.16,66.35,5.84,73.69-16.75,73.69-23,2.78,7.24,76.93,11,77.5-9.83,6.53,0.36,72.93,33.26,121.12-5.05,29.88-23.75-10.82-63.18-29.8-57.46C310.15,78,281.26,23.33,235.25,43c9.11-21.35-23.78-33.08-39.8-17C190.94-4.41,111.65-3.9,87.62,6.16Z"/></svg>