<svg id="Layer_1" data-name="Layer 1" xmlns="http://www.w3.org/2000/svg" viewBox="0 0 375.24 398.17"><defs><style>.cls-1{fill:#544834;}.cls-2{fill:#0d1615;}.cls-3{fill:#172624;}.cls-4{fill:#243834;}.cls-5{fill:#42392b;opacity:0.6;}</style></defs><title>tree</title><polygon class="cls-1" points="226.72 218.41 227.39 221.94 201.98 244.08 203.64 236.28 226.72 218.41"/><polygon class="cls-1" points="148.54 206.57 145.18 209.69 176.8 248.23 177.52 234.36 148.54 206.57"/><ellipse class="cls-2" cx="139.06" cy="267.99" rx="10.19" ry="24.58" transform="translate(-135.3 394.02) rotate(-87.25)"/><ellipse class="cls-3" cx="139.62" cy="267.86" rx="7.99" ry="19.27" transform="translate(-134.64 394.46) rotate(-87.25)"/><ellipse class="cls-4" cx="143.7" cy="268.73" rx="5.06" ry="12.2" transform="translate(-131.62 399.36) rotate(-87.25)"/><polygon class="cls-1" points="175.96 280.68 152.56 271.68 153.36 267.99 177.52 274.13 175.96 280.68"/><polygon class="cls-5" points="152.92 270.05 172.27 277.01 172 279.16 152.56 271.68 152.92 270.05"/><polygon class="cls-5" points="222.67 224.31 203.95 239.69 204.12 242.19 222.86 225.92 222.67 224.31"/><polygon class="cls-5" points="175.49 242.31 175.13 246.19 149.76 215.4 151.46 214.29 175.49 242.31"/><ellipse class="cls-2" cx="236.81" cy="248.23" rx="15.09" ry="6.26" transform="translate(-2.4 2.31) rotate(-0.56)"/><ellipse class="cls-3" cx="236.46" cy="248.33" rx="11.83" ry="4.91" transform="translate(-2.4 2.31) rotate(-0.56)"/><ellipse class="cls-4" cx="233.93" cy="247.94" rx="7.49" ry="3.1" transform="translate(-2.4 2.29) rotate(-0.56)"/><polygon class="cls-1" points="231.25 246.55 231.05 249.93 201.56 267.07 203.86 258.22 231.25 246.55"/><polygon class="cls-5" points="231.15 248.31 205.28 262.44 205.44 264.85 231.05 249.93 231.15 248.31"/><path class="cls-1" d="M221.71,393.12a116.84,116.84,0,0,1-18.64,4.62c-9,1.35-28-.7-34.3-2.83l-7.43-3.25,21.12-222.88,17.3-.82,8.79,151.18Z"/><path class="cls-5" d="M221.71,393.12s-10.36,3.32-14.11,3.82c-1.68.23-8.89-72.53-8.54-75.91s-0.33-98.6,0-101.5,3.78,0.82,3.78.82,5.19,89.74,5.72,98.79Z"/><path class="cls-2" d="M154.35,209.54C127.12,244.62,24.62,243.88,8.6,191.24c-11.49-37.75,73-24.78,73-24.78S-0.39,141.72,0,110.77C0.25,91.43,38.72,86.1,69.12,89.84,67.91,75.45,125.74-24.6,156.27,47.52c76.78-99.72,148.5-20.61,152.19,66C352,90,372.16,124.75,324.89,162.84c87,11.39,49.74,56.11-24.48,75.21-44.15,11.36-78.13-6.49-78.45-11.21-10.6,6.93-38,4.54-39.25-10.35C176.32,224.26,155.34,223,154.35,209.54Z"/><path class="cls-3" d="M155.93,198.62c-27.24,35.08-130,42.79-146-9.85C-1.59,151,88.85,156.36,88.85,156.36s-89-15.7-88.59-46.66C0.51,90.36,39,85,69.38,88.77,68.17,74.38,126-25.67,156.53,46.45c76.78-99.72,148.5-20.61,152.19,66,43.56-23.61,63.7,11.18,16.43,49.27,87,11.39,48.13,51.25-25.14,67.67-44.48,10-78.13-6.49-78.45-11.21-10.6,6.93-36.39,4.16-37.69-10.73C177.5,215.27,156.91,212.08,155.93,198.62Z"/><path class="cls-4" d="M152.82,177.13c-27.24,35.08-120.31,52.65-136.47,10.8-12.42-32.17,44.39-30.07,44.39-30.07S-0.13,140.65.26,109.7C0.51,90.36,39,85,69.38,88.77,68.17,74.38,126-25.67,156.53,46.45c76.78-99.72,148.5-20.61,152.19,66,43.56-23.61,63.7,11.18,16.43,49.27,80.49,11.25,39.41,40.88-24,52.61-44.83,8.29-73.14-20.72-73.47-25.44C217,195.87,188.26,199,187,184.11,180.58,191.88,153.81,190.6,152.82,177.13Z"/></svg>