<svg id="Layer_1" data-name="Layer 1" xmlns="http://www.w3.org/2000/svg" viewBox="0 0 347.18 438.29"><defs><style>.cls-1{fill:#010e0f;}.cls-2{fill:#021d1e;}.cls-3{fill:#032624;}.cls-4{fill:#5c5341;}.cls-5{fill:#42392b;opacity:0.6;}</style></defs><title>tree</title><ellipse class="cls-1" cx="114.54" cy="268.88" rx="11.35" ry="27.39" transform="translate(-174.73 310.55) rotate(-75.12)"/><ellipse class="cls-2" cx="115.09" cy="269.2" rx="8.9" ry="21.47" transform="translate(-174.63 311.33) rotate(-75.12)"/><ellipse class="cls-3" cx="119.72" cy="269.66" rx="5.63" ry="13.59" transform="translate(-171.64 316.14) rotate(-75.12)"/><polygon class="cls-4" points="127.5 266.86 127.88 273.04 160.74 292.14 157.51 279.74 127.5 266.86"/><polygon class="cls-4" points="132.7 237.91 131.96 241.83 160.27 266.52 158.42 257.83 132.7 237.91"/><polygon class="cls-4" points="219.82 224.73 223.57 228.2 188.32 271.14 187.53 255.69 219.82 224.73"/><path class="cls-4" d="M138.28,432.6A130.2,130.2,0,0,0,159,437.75c10.06,1.5,30.79-.3,38.22-3.15,3.54-1.36,8.28-3.62,8.28-3.62L182,182.62l-19.28-.92-9.8,168.46Z"/><path class="cls-5" d="M138.28,432.6s11.54,3.7,15.72,4.26c1.87,0.25,9.9-80.82,9.52-84.59s1.3-136.94,1.43-140.18a22.17,22.17,0,0,1-4,.89l-8,137.18Z"/><polygon class="cls-5" points="127.77 271.24 156.61 286.99 156.46 289.66 127.88 273.04 127.77 271.24"/><polygon class="cls-4" points="189.26 307.31 215.34 297.28 214.45 293.17 187.53 300 189.26 307.31"/><polygon class="cls-5" points="214.94 295.45 193.44 303.2 193.68 305.62 215.34 297.28 214.94 295.45"/><polygon class="cls-5" points="132.28 240.13 158.07 261.63 157.88 264.41 131.96 241.83 132.28 240.13"/><polygon class="cls-5" points="189.79 264.55 190.19 268.88 218.46 234.56 216.57 233.32 189.79 264.55"/><path class="cls-1" d="M97.93,239.45c-10.25,26.88-50,17.09-46.32-1.32-78.46-5.22-49.28-124.64-7.23-120.92C19.94,94,59.51,56.73,103.82,76.15c7-54.89,90.67-57,106.26-24.9,55.31-35.17,114.67,23.88,89.83,58.42,40.79-.72,62.16,41.63,27.54,56.61,30,31.16-35.36,101.44-62.32,82.29-35.73,20.29-72.28-12.46-67.44-32.69-17.49,13.07-46,6.11-46.23-2.88C160.45,232.83,111,258.5,97.93,239.45Z"/><path class="cls-2" d="M97.8,233.94c-11.14,21.58-44.41,11.48-42.91-1.25-78.46-5.22-63-118.71-10.52-115.48C19.94,94,59.29,48.49,103.6,67.91c7-54.89,90.67-57,106.26-24.9,55.31-35.17,112.72,22.26,87.87,56.8,40.79-.72,64.34,51.5,29.72,66.48,29.2,30.11-35.58,93.19-62.54,74.05-35.73,20.29-67.49-11.19-62.65-31.41C184.76,222,149,214.79,148.7,205.8,157.69,225.61,110.9,253,97.8,233.94Z"/><path class="cls-3" d="M97.93,217c-4.1,27.83-44.74,21.21-41,2.52-88.55-4.61-58.58-107-12.58-102.32-24.82-23.56,13.8-90.37,58.8-70.64,7.12-55.75,92.08-57.85,107.91-25.28,56.17-35.72,118.65,22.45,93.41,57.53,41.42-.73,59.52,74.51,22.94,87.48,30.43,31.64-32.94,78.51-60.32,59.07-36.29,20.61-65.53-5.1-60.62-25.64-17.77,13.27-57.9,2.92-58.18-6.21C157.47,213.62,111.24,236.36,97.93,217Z"/></svg>