<svg id="Layer_1" data-name="Layer 1" xmlns="http://www.w3.org/2000/svg" viewBox="0 0 352.89 454.89"><defs><style>.cls-1{fill:#021111;}.cls-2{fill:#032123;}.cls-3{fill:#042b30;}.cls-4{fill:#575140;}.cls-5{fill:#42392b;opacity:0.6;}</style></defs><title>tree</title><ellipse class="cls-1" cx="236.12" cy="282.38" rx="28.92" ry="11.99" transform="translate(-64.58 70.08) rotate(-14.88)"/><ellipse class="cls-2" cx="234.31" cy="282.55" rx="21.77" ry="9.02" transform="translate(-64.68 69.62) rotate(-14.88)"/><ellipse class="cls-3" cx="229.63" cy="283.01" rx="13.77" ry="5.71" transform="translate(-64.96 68.43) rotate(-14.88)"/><ellipse class="cls-1" cx="125.25" cy="393.82" rx="7.04" ry="16.99" transform="translate(-279.13 308.58) rotate(-60.45)"/><ellipse class="cls-2" cx="126.08" cy="394.5" rx="5.3" ry="12.78" transform="translate(-279.29 309.65) rotate(-60.45)"/><ellipse class="cls-3" cx="128.23" cy="396.23" rx="3.35" ry="8.09" transform="translate(-279.71 312.4) rotate(-60.45)"/><polygon class="cls-4" points="223.55 281.19 223.16 287.46 189.86 306.82 193.13 294.24 223.55 281.19"/><polygon class="cls-4" points="218.28 251.85 219.03 255.84 190.33 280.85 192.21 272.04 218.28 251.85"/><polygon class="cls-4" points="129.98 238.49 126.18 242.01 161.9 285.54 162.71 269.87 129.98 238.49"/><path class="cls-4" d="M212.62,449.18a132,132,0,0,1-21,5.22c-10.19,1.52-31.63-.8-38.74-3.2l-8.39-3.67L168.3,195.81l19.54-.93,9.93,170.75Z"/><path class="cls-5" d="M212.62,449.18s-11.7,3.75-15.94,4.32c-1.9.25-10-81.92-9.65-85.73s-1.35-126.93-1-130.2,4.27,0.93,4.27.93,6.84,116.92,7.44,127.14Z"/><path class="cls-1" d="M212.12,224.46c20.62,30.36,91,29.14,91,18.5s-12.09-29.87-24.67-29.87c65.45-17.07,94.14-103.37,59.76-90.15-39.78,15.3-41.06,14.85-41.06,14.85s33-61.74-24.78-39.16c69.16-58.14-23.82-65.8-37-43-10.89-77.92-65.89-69.28-93.19-2.85C81.69-4,41.74,22.1,96.67,86c-23.8-10.42-41,13.74-37.47,18.81C23.58,65.17-52.87,90.77,57,155.35c-98,3-21.19,46.8,27.93,40.22-72.81,22.83-16.59,64.51,61.74,36.33C152.25,248.67,211.06,244.18,212.12,224.46Z"/><path class="cls-2" d="M211.89,216.11c20.62,30.36,91.05,34.92,91.05,24.28s-14.36-28.5-24.46-27.3c64.47-15.76,94.14-103.37,59.76-90.15-39.78,15.3-41.06,14.85-41.06,14.85s33-61.74-24.78-39.16c69.16-58.14-23.82-65.8-37-43-10.89-77.92-65.89-69.28-93.19-2.85C81.69-4,41.74,22.1,96.67,86c-23.8-10.42-41,13.74-37.47,18.81C23.58,65.17-52.87,90.77,57,155.35c-98,3-21.19,46.8,27.93,40.22-70.29,22.71-15.53,56.67,62.81,28.49C153.32,240.83,210.83,235.82,211.89,216.11Z"/><path class="cls-3" d="M212.62,201.44c20.62,30.36,78,38.41,75.69,28-2.22-9.78-5.75-16.09-14.3-16.69,70.12-14.7,98.62-103.07,64.25-89.85-39.78,15.3-41.06,14.85-41.06,14.85s33-61.74-24.78-39.16c69.16-58.14-23.82-65.8-37-43-10.89-77.92-65.89-69.28-93.19-2.85C81.69-4,41.74,22.1,96.67,86c-23.8-10.42-41,13.74-37.47,18.81C23.58,65.17-52.87,90.77,57,155.35c-101.46,4.25-17.51,44.4,31.53,39.27-56.72,24.67-10.13,35.17,68.2,7C162.31,218.37,211.56,221.16,212.62,201.44Z"/><polygon class="cls-5" points="223.28 285.63 194.06 301.59 194.24 304.31 223.16 287.46 223.28 285.63"/><polygon class="cls-4" points="153.23 414.39 129.48 398.98 130.82 395.99 156.48 407.51 153.23 414.39"/><polygon class="cls-5" points="130.25 397.25 148.16 408.25 147.91 410.9 129.48 398.98 130.25 397.25"/><polygon class="cls-5" points="218.71 254.11 192.52 275.92 192.71 278.75 219.03 255.84 218.71 254.11"/><polygon class="cls-5" points="160.41 278.85 160.01 283.24 126.18 242 127.72 240.58 160.41 278.85"/></svg>