<svg id="Layer_2" data-name="Layer 2" xmlns="http://www.w3.org/2000/svg" viewBox="0 0 115.92 206.98"><defs><style>.cls-1{fill:#472d4f;}.cls-2{fill:#fff;}.cls-3{fill:#9b6154;}.cls-4{fill:#eee9e5;}</style></defs><title>monsters</title><path class="cls-1" d="M58.1,0C-34.58,0,11.42,127.1,11.42,163.57c0,7.83-3,16.46-6.32,23.68a11.49,11.49,0,0,0,10.48,16.26S48.23,207,59.16,207c10.44,0,41.61-3.47,41.61-3.47a11.49,11.49,0,0,0,10.51-16.19c-3.23-7.11-6.09-15.6-6.09-23.34C105.19,116.75,149.48,0,58.1,0Z"/><path class="cls-2" d="M105.19,48.91c0,30.28-17.6,12.64-47.09,12.64C28,61.55,11.35,79.19,11.42,48.91,11.45,30.52,28,15.6,55.89,15.6,86.29,15.6,105.19,30.52,105.19,48.91Z"/><ellipse cx="58.3" cy="38.13" rx="15.87" ry="19.12"/><path class="cls-3" d="M74.61,111.1c-2.37,5.68-11.7,13.18-16.45,13.15S44.34,116.71,42,111.1c-1.84-4.45-.84-17.87-0.29-23.74,0.15-1.6,1.14-2.8,2.31-2.8H72.58c1.17,0,2.16,1.19,2.31,2.79C75.45,93.23,76.46,106.66,74.61,111.1Z"/><path class="cls-4" d="M54.21,84.56h7.7a0,0,0,0,1,0,0V92a3.7,3.7,0,0,1-3.7,3.7H57.91a3.7,3.7,0,0,1-3.7-3.7V84.56A0,0,0,0,1,54.21,84.56Z"/></svg>