<?xml version="1.0" encoding="utf-8"?>
<!-- Generator: Adobe Illustrator 20.1.0, SVG Export Plug-In . SVG Version: 6.00 Build 0)  -->
<svg version="1.1" id="图层_1" xmlns="http://www.w3.org/2000/svg" xmlns:xlink="http://www.w3.org/1999/xlink" x="0px" y="0px"
	 viewBox="0 0 173.7 145.7" style="enable-background:new 0 0 173.7 145.7;" xml:space="preserve">
<style type="text/css">
	.st0{fill:#FF4848;}
	.st1{fill:#E54545;}
</style>
<g>
	<path class="st0" d="M174,53.9L174,53.9L174,53.9c0-29.7-24.1-53.7-53.7-53.7c-12.6,0-24.3,4.4-33.4,11.7
		C77.8,4.7,66.1,0.2,53.5,0.2C23.8,0.2-0.2,24.3-0.2,53.9l0,0l0,0c0,0.2,0,0.2,0,0.5c0,0.2,0,0.5,0,0.9
		c0.7,42.3,86.9,90.4,86.9,90.4s86.2-48.1,86.9-90.4c0-0.2,0-0.5,0-0.9C173.7,54.2,174,53.9,174,53.9z"/>
	<path class="st1" d="M86.9,145.5c0,0,86.2-48.1,86.9-90.4c0-0.2,0-0.5,0-0.9c0-0.2,0-0.2,0-0.5l0,0l0,0C173.7,24.1,149.7,0,120,0
		c-12.6,0-24.3,4.4-33.4,11.7"/>
	<polyline class="st0" points="0,53.7 0,53.9 -0.2,53.9 	"/>
</g>
</svg>
