<?xml version="1.0" encoding="utf-8"?>
<!-- Generator: Adobe Illustrator 21.0.0, SVG Export Plug-In . SVG Version: 6.00 Build 0)  -->
<svg version="1.1" id="图层_1" xmlns="http://www.w3.org/2000/svg" xmlns:xlink="http://www.w3.org/1999/xlink" x="0px" y="0px"
	 viewBox="0 0 43.9 91.6" style="enable-background:new 0 0 43.9 91.6;" xml:space="preserve">
<style type="text/css">
	.st0{fill:#F5F4CD;}
	.st1{fill:#F4BECF;}
	.st2{fill:#B3A06F;}
	.st3{fill:#D9C085;}
	.st4{fill:#FFFFFF;stroke:#000000;stroke-miterlimit:10;}
	.st5{fill:#6A7080;}
	.st6{fill:#538FAB;}
	.st7{fill:#F6A7A7;}
	.st8{fill:#F27773;}
	.st9{fill:#FFFFFF;}
</style>
<g>
	<ellipse transform="matrix(0.9602 -0.2793 0.2793 0.9602 -3.2036 3.3347)" class="st0" cx="10.1" cy="12.9" rx="5.1" ry="12"/>
	<ellipse transform="matrix(0.9602 -0.2793 0.2793 0.9602 -3.2036 3.3347)" class="st1" cx="10.1" cy="12.9" rx="3.9" ry="9.3"/>
	<ellipse transform="matrix(0.2793 -0.9602 0.9602 0.2793 13.1475 41.4633)" class="st0" cx="34.2" cy="12" rx="12" ry="5.1"/>
	<ellipse transform="matrix(0.2793 -0.9602 0.9602 0.2793 13.1475 41.4633)" class="st1" cx="34.2" cy="12" rx="9.3" ry="3.9"/>
	<g>
		<g>
			<polygon class="st2" points="43.9,34.5 41.5,32.6 32.7,43.8 35,45.7 			"/>
			<polygon class="st3" points="6.6,85.9 0,87.6 0.2,80.7 32,40.4 38.4,45.6 			"/>
			<polygon class="st2" points="40.1,49.9 27.6,39.7 29.8,37 42.3,47.1 			"/>
		</g>
		<line class="st4" x1="31.7" y1="47.5" x2="6" y2="80"/>
	</g>
	<ellipse class="st0" cx="26.8" cy="81.6" rx="2" ry="9.2"/>
	<ellipse class="st0" cx="16.6" cy="81.6" rx="2" ry="9.2"/>
	<path class="st5" d="M18.7,76.5c0,2.3,0.3,2.3-2,2.3c-2.7,0-2.1,0-2.1-2.3s0.9-4.1,2-4.1S18.7,74.2,18.7,76.5z"/>
	<path class="st5" d="M28.9,76.5c0,2.3,0.3,2.3-2,2.3c-2.7,0-2.1,0-2.1-2.3s0.9-4.1,2-4.1S28.9,74.2,28.9,76.5z"/>
	<path class="st6" d="M17.5,52.8h8.6c1.6,0,3.1,1,3.8,2.5l1.1,6.3v15.1H12.3l0.3-15.5l0.5-5.4C13.8,54,15.6,52.8,17.5,52.8z"/>
	<path class="st0" d="M21.9,57h-0.6c-1.1,0-2-0.9-2-2v-5.8h4.6V55C23.9,56.1,23,57,21.9,57z"/>
	<path class="st0" d="M24.4,53.1h-4.7c-8.4,0-15.1-6.8-15.1-15.1v-7.3c0-6.9,5.6-12.5,12.5-12.5h10.2c6.8,0,12.3,5.5,12.3,12.3V38
		C39.6,46.3,32.8,53.1,24.4,53.1z"/>
	<path d="M14.3,36.4h-3.5v-6.8c0-0.8,0.7-1.5,1.5-1.5h0.5c0.8,0,1.5,0.7,1.5,1.5V36.4z"/>
	<path d="M32.8,36.4h-3.5v-6.8c0-0.8,0.7-1.5,1.5-1.5h0.5c0.8,0,1.5,0.7,1.5,1.5V36.4z"/>
	<ellipse transform="matrix(0.4339 -0.901 0.901 0.4339 -48.6715 46.0394)" class="st0" cx="12.3" cy="61.7" rx="9.1" ry="2.7"/>
	<path class="st5" d="M28.9,87.7c0.6-3.5,0.7-1.3-1.9-1.3c-2.1,0-2.6-1.1-2.6-0.3c0,1,0.1,4.1,0.1,4.1c0,0.8,0.6,1.4,1.4,1.4l1.2,0
		c0.1,0,0.2,0,0.2,0c2.1,0,4.3-0.9,4.3-1.9C31.6,89,30.3,88.1,28.9,87.7z"/>
	<path class="st6" d="M12.8,55.8c-1.3,1.9-2,2.3,0.3,3.4c3.8,1.9,3.1,0.5,3.7-1.6c0.3-1.3,0.8-4.1-0.9-4.3
		C15.6,53.3,14,54.1,12.8,55.8z"/>
	<ellipse transform="matrix(0.901 -0.4339 0.4339 0.901 -23.7804 19.8503)" class="st0" cx="31.6" cy="62" rx="2.7" ry="9.1"/>
	<path class="st6" d="M31.1,55.8c1.3,1.9,2,2.3-0.3,3.4c-3.8,1.9-3.1,0.5-3.7-1.6c-0.3-1.3-0.8-4.1,0.9-4.3
		C28.3,53.3,29.9,54.1,31.1,55.8z"/>
	<path class="st5" d="M14.4,87.7c-0.6-3.5-0.7-1.3,1.9-1.3c2.1,0,2.6-1.1,2.6-0.3c0,1-0.1,4.1-0.1,4.1c0,0.8-0.6,1.4-1.4,1.4l-1.2,0
		c-0.1,0-0.2,0-0.2,0c-2.1,0-4.3-0.9-4.3-1.9C11.7,89,12.9,88.1,14.4,87.7z"/>
	<ellipse class="st7" cx="31.1" cy="36.4" rx="4.3" ry="1.2"/>
	<ellipse class="st7" cx="12.6" cy="36.4" rx="4.3" ry="1.2"/>
	<path class="st8" d="M21.8,40.5h0.7c0.4,0,0.7,0.5,0.5,0.8l-0.3,0.6l-0.3,0.4c-0.3,0.4-0.9,0.4-1.1,0l-0.3-0.4l-0.3-0.6
		c-0.2-0.4,0.1-0.8,0.5-0.8H21.8z"/>
	<path d="M26,47.1c0,0.7-0.5,1.4-1.1,1.6c-1,0.3-5.2,0.3-6.2,0c-0.7-0.2-1.1-0.9-1.1-1.6v0c0-0.9,0.7-1.7,1.6-1.7h5.2
		C25.2,45.4,26,46.1,26,47.1L26,47.1z"/>
	<path class="st9" d="M21.2,46.6H21c-0.3,0-0.6-0.3-0.6-0.6v-0.2c0-0.3,0.3-0.6,0.6-0.6h0.2c0.3,0,0.6,0.3,0.6,0.6v0.2
		C21.7,46.4,21.5,46.6,21.2,46.6z"/>
	<path class="st9" d="M22.8,46.6h-0.2c-0.3,0-0.6-0.3-0.6-0.6v-0.2c0-0.3,0.3-0.6,0.6-0.6h0.2c0.3,0,0.6,0.3,0.6,0.6v0.2
		C23.4,46.4,23.2,46.6,22.8,46.6z"/>
</g>
</svg>
