<svg xmlns="http://www.w3.org/2000/svg" xmlns:xlink="http://www.w3.org/1999/xlink" viewBox="0 0 64.67 94.25"><defs><style>.cls-1,.cls-10,.cls-15,.cls-5{fill:none;}.cls-2{fill:#7f7e0d;}.cls-3{fill:#c9c420;}.cls-4{fill:#ddd67a;}.cls-5{stroke:#c9c420;}.cls-10,.cls-15,.cls-5{stroke-miterlimit:10;}.cls-6{fill:#f1ece9;}.cls-7{clip-path:url(#clip-path);}.cls-8{clip-path:url(#clip-path-2);}.cls-9{fill:#bc695f;}.cls-10{stroke:#7f7e0d;}.cls-11{fill:#686b2a;}.cls-12{fill:#755d5a;}.cls-13{fill:#5e5155;}.cls-14{fill:#c59595;}.cls-15{stroke:#755d5a;stroke-width:0.6px;}.cls-16{fill:#e7e294;}</style><clipPath id="clip-path"><path class="cls-1" d="M23.64,62.09h0C23.4,55.91,20.16,51,16.2,51S8.82,56.28,8.77,62.8C8.71,70.5,17,76,18.52,78.39a1.78,1.78,0,0,1,.2.59c0,2.52-4.95,6.2-6.12,7a2.71,2.71,0,1,0-.48,5.05,2.7,2.7,0,0,0,3.45.79A2.71,2.71,0,0,0,20.63,90a1,1,0,0,0,.37-.23,30.63,30.63,0,0,0,3.69-5.51s2.24-4.63,1-6.08c-.52-.6-4.16-8.82,4.66-9.7C33.1,68.2,23.64,62.09,23.64,62.09Z"/></clipPath><clipPath id="clip-path-2"><path class="cls-1" d="M40.58,62.09h0C40.82,55.91,44.05,51,48,51s7.38,5.28,7.43,11.8C55.51,70.5,47.2,76,45.7,78.39a1.78,1.78,0,0,0-.2.59c0,2.52,4.95,6.2,6.12,7a2.71,2.71,0,1,1,.48,5.05,2.7,2.7,0,0,1-3.45.79A2.71,2.71,0,0,1,43.58,90a1,1,0,0,1-.37-.23,30.63,30.63,0,0,1-3.69-5.51s-2.24-4.63-1-6.08c.52-.6,4.16-8.82-4.66-9.7C31.11,68.2,40.58,62.09,40.58,62.09Z"/></clipPath></defs><title>资源 1</title><g id="图层_2" data-name="图层 2"><g id="_3" data-name="3"><g id="YELLW"><path class="cls-2" d="M24.23,62.35h0c-.23-6.31-3.52-11.31-7.55-11.31s-7.52,5.38-7.57,12C9,70.9,17.49,76.48,19,78.94a1.81,1.81,0,0,1,.2.6c0,2.56-5,6.31-6.23,7.16a2.76,2.76,0,1,0-.49,5.14,2.75,2.75,0,0,0,3.51.8,2.75,2.75,0,0,0,5.16-1.88,1,1,0,0,0,.37-.24,31.18,31.18,0,0,0,3.75-5.61s2.28-4.71,1-6.19C25.75,78.11,25,77.1,25,77.1s-4.42-8,5.87-8.68C33.67,68.23,24.23,62.35,24.23,62.35Z"/><path class="cls-3" d="M24,62.1h0c-.23-6.31-3.52-11.31-7.55-11.31s-7.52,5.38-7.57,12c-.06,7.83,8.4,13.41,9.92,15.87a1.81,1.81,0,0,1,.2.6c0,2.56-5,6.31-6.23,7.16a2.76,2.76,0,1,0-.49,5.14,2.75,2.75,0,0,0,3.51.8,2.75,2.75,0,0,0,5.16-1.88,1,1,0,0,0,.37-.24A31.18,31.18,0,0,0,25,84.67s2.28-4.71,1-6.19c-.53-.61-1.33-1.62-1.33-1.62s-4.42-8,5.87-8.68C33.42,68,24,62.1,24,62.1Z"/><path class="cls-4" d="M23.64,62.09h0C23.4,55.91,20.16,51,16.2,51S8.82,56.28,8.77,62.8C8.71,70.5,17,76,18.52,78.39a1.78,1.78,0,0,1,.2.59c0,2.52-4.95,6.2-6.12,7a2.71,2.71,0,1,0-.48,5.05,2.7,2.7,0,0,0,3.45.79A2.71,2.71,0,0,0,20.63,90a1,1,0,0,0,.37-.23,30.63,30.63,0,0,0,3.69-5.51s2.24-4.63,1-6.08c-.52-.6-4.16-8.82,4.66-9.7C33.1,68.2,23.64,62.09,23.64,62.09Z"/><path class="cls-5" d="M15.56,91.85c-.23-1-.57-3.13,1.82-3.84A15.55,15.55,0,0,0,21,83.31"/><path class="cls-5" d="M12.11,91.07c-.27-.79-1.32-4.11,2.67-4C18.31,84.73,19.1,83,19.1,83"/><path class="cls-6" d="M12.2,64.51c1.57.91.88,3,2.32,4.09.48.35,1.08.57,1.56.92A1.35,1.35,0,0,1,16.72,71a8.35,8.35,0,0,1-.39.85,2.63,2.63,0,0,0,.43,2.57c.3.46,1.49.4,1.71.92s.16,1.33-.47.58c-.94-1.14-2.33-1-3.43-3-.19-.35-.81-.07-1.35-.61a4.71,4.71,0,0,1-1-1.68,17.35,17.35,0,0,1-.47-2c-.1-.41-.65-.78-.27-1.2a14.16,14.16,0,0,1,2.27,1.85c-1.44-1.38-.89-3.22-1.73-4.8Z"/><g class="cls-7"><path class="cls-6" d="M21.63,88c-.27-1.8,1.82-2.58,1.74-4.37,0-.59-.23-1.2-.26-1.79a1.35,1.35,0,0,1,.76-1.43,8.35,8.35,0,0,1,.91-.22,2.63,2.63,0,0,0,1.74-1.95c.17-.53-.62-1.42-.35-1.91s.94-1,.74,0c-.3,1.45.67,2.45-.22,4.57-.15.37.45.68.36,1.43a4.71,4.71,0,0,1-.7,1.82,17.35,17.35,0,0,1-1.29,1.63c-.26.34-.2,1-.77,1a14.16,14.16,0,0,1,0-2.93c-.18,2-2,2.71-2.66,4.35Q21.64,88.06,21.63,88Z"/></g><path class="cls-2" d="M39.82,62.1h0c.23-6.31,3.52-11.31,7.55-11.31s7.52,5.38,7.57,12C55,70.65,46.56,76.23,45,78.69a1.81,1.81,0,0,0-.2.6c0,2.56,5,6.31,6.23,7.16.36-.18,4,1,4,2.48a2.75,2.75,0,0,1-3.46,2.66,2.75,2.75,0,0,1-3.51.8,2.75,2.75,0,0,1-5.16-1.88,1,1,0,0,1-.37-.24,31.18,31.18,0,0,1-3.75-5.61s-2.28-4.71-1-6.19c.53-.61,1.33-1.62,1.33-1.62s4.56-8.09-6.31-8.3C29.94,68.5,39.82,62.1,39.82,62.1Z"/><path class="cls-3" d="M40.16,61.76h0c.23-6.31,3.52-11.31,7.55-11.31s7.52,5.38,7.57,12c.06,7.83-8.4,13.41-9.92,15.87a1.81,1.81,0,0,0-.2.6c0,2.56,5,6.31,6.23,7.16.36-.18,4,1,4,2.48a2.75,2.75,0,0,1-3.46,2.66,2.75,2.75,0,0,1-3.51.8,2.75,2.75,0,0,1-5.16-1.88,1,1,0,0,1-.37-.24,31.18,31.18,0,0,1-3.75-5.61s-2.28-4.71-1-6.19c.53-.61,1.33-1.62,1.33-1.62s4.56-8.09-6.31-8.3C30.28,68.16,40.16,61.76,40.16,61.76Z"/><path class="cls-4" d="M40.58,62.09h0C40.82,55.91,44.05,51,48,51s7.38,5.28,7.43,11.8C55.51,70.5,47.2,76,45.7,78.39a1.78,1.78,0,0,0-.2.59c0,2.52,4.95,6.2,6.12,7a2.71,2.71,0,1,1,.48,5.05,2.7,2.7,0,0,1-3.45.79A2.71,2.71,0,0,1,43.58,90a1,1,0,0,1-.37-.23,30.63,30.63,0,0,1-3.69-5.51s-2.24-4.63-1-6.08c.52-.6,4.16-8.82-4.66-9.7C31.11,68.2,40.58,62.09,40.58,62.09Z"/><g class="cls-8"><path class="cls-6" d="M47.32,65.37c1.57.91.88,3,2.32,4.09.48.35,1.08.57,1.56.92a1.35,1.35,0,0,1,.64,1.49,8.35,8.35,0,0,1-.39.85,2.63,2.63,0,0,0,.43,2.57c.3.46,1.49.4,1.71.92s.16,1.33-.47.58c-.94-1.14-2.33-1-3.43-3-.19-.35-.81-.07-1.35-.61a4.71,4.71,0,0,1-1-1.68,17.35,17.35,0,0,1-.47-2c-.1-.41-.65-.78-.27-1.2a14.16,14.16,0,0,1,2.27,1.85c-1.44-1.38-.89-3.22-1.73-4.8Z"/></g><path class="cls-5" d="M48.65,91.85c.23-1,.57-3.13-1.82-3.84a15.55,15.55,0,0,1-3.65-4.7"/><path class="cls-5" d="M52.1,91.07c.27-.79,1.32-4.11-2.67-4C45.91,84.73,45.11,83,45.11,83"/><path class="cls-2" d="M35.86,3a3.44,3.44,0,0,1,1.8-2,2.89,2.89,0,0,1,2,.3c.63.28,1.29.74,1.36,1.42.1,1-1,1.59-1.85,2.07a11.85,11.85,0,0,0-3.83,3.6c-.62.88-1.59,4-2.8,4-1.61-.07.21-2.94.55-3.7C33.92,6.77,34.89,4.88,35.86,3Z"/><path class="cls-2" d="M30,5.82a1.28,1.28,0,0,0-.54-.12A5,5,0,0,0,27,6a7.66,7.66,0,0,1-.84.56,2.19,2.19,0,0,1-1.39,0,1.36,1.36,0,0,1-.45-.18A1,1,0,0,1,24,5.9a1.91,1.91,0,0,1,.71-2.19A4,4,0,0,1,27,3a5.05,5.05,0,0,1,4.52,2A18.84,18.84,0,0,1,32.76,9.9c-.27,1-.89.31-1,0C31.39,9.14,31.27,6.41,30,5.82Z"/><path class="cls-4" d="M32,6.23C16.06,6.56,9.94,16.11,9.94,28.3v11c0,10.55,4.28,19.8,10.69,24.94a18.57,18.57,0,0,0,11.68,4.3c12.35,0,22.37-13.09,22.37-29.23l.21-11c0-12.18-6.07-22.06-22.06-22.06Z"/><path class="cls-4" d="M35.84,2a3.44,3.44,0,0,1,1.8-2,2.89,2.89,0,0,1,2,.3c.63.28,1.29.74,1.36,1.42.1,1-1,1.59-1.85,2.07a11.85,11.85,0,0,0-3.83,3.6c-.62.88-1.59,4-2.8,4-1.61-.07.21-2.94.55-3.7C33.91,5.81,34.88,3.92,35.84,2Z"/><path class="cls-4" d="M30,5.22a1.28,1.28,0,0,0-.54-.12A5,5,0,0,0,27,5.35a7.66,7.66,0,0,1-.84.56,2.19,2.19,0,0,1-1.39,0,1.36,1.36,0,0,1-.45-.18,1,1,0,0,1-.31-.4,1.91,1.91,0,0,1,.71-2.19A4,4,0,0,1,27,2.44a5.05,5.05,0,0,1,4.52,2A18.84,18.84,0,0,1,32.76,9.3c-.27,1-.89.31-1,0C31.39,8.54,31.27,5.8,30,5.22Z"/><path class="cls-6" d="M22.74,28.27c-1.12,1.43-3.13.46-4.37,1.74-.41.42-.72,1-1.13,1.42a1.35,1.35,0,0,1-1.56.43,8.35,8.35,0,0,1-.79-.51,2.63,2.63,0,0,0-2.61.08c-.5.24-.61,1.42-1.14,1.57s-1.34,0-.51-.54c1.25-.78,1.32-2.17,3.47-3,.37-.14.45-1.13.74-1.43a3.6,3.6,0,0,1,1.8-.75,18.32,18.32,0,0,1,2.12,0c.42,0,.86-.54,1.22-.1a14.16,14.16,0,0,1-2.14,2c1.56-1.23,3.31-.44,5-1.05Z"/><path class="cls-6" d="M26.43,50.85c-1.12,1.43-3.13.46-4.37,1.74-.41.42-.72,1-1.13,1.42a1.35,1.35,0,0,1-1.56.43,8.35,8.35,0,0,1-.79-.51A2.63,2.63,0,0,0,16,54c-.5.24-.61,1.42-1.14,1.57s-1.34,0-.51-.54c1.25-.78,1.32-2.17,3.47-3,.37-.14.45-1.13.74-1.43a3.6,3.6,0,0,1,1.8-.75,18.32,18.32,0,0,1,2.12,0c.42,0,.86-.54,1.22-.1a14.16,14.16,0,0,1-2.14,2c1.56-1.23,3.31-.44,5-1.05Z"/><path class="cls-6" d="M38.21,9.27C39,10.93,41.14,10.46,42,12c.3.51.46,1.14.76,1.65a1.35,1.35,0,0,0,1.41.79,8.35,8.35,0,0,0,.88-.3,2.63,2.63,0,0,1,2.51.7c.43.35.25,1.53.74,1.79s1.31.29.62-.4c-1-1.05-.76-2.42-2.66-3.73-.33-.23-.14-1.5-.36-1.86a3.6,3.6,0,0,0-1.57-1.15A18.32,18.32,0,0,0,42.32,9c-.33-.12-.61-.34-.95-.23a.27.27,0,0,0-.16.35,6.52,6.52,0,0,0,1.53,2.22c-1.22-1.57-3.11-1.22-4.59-2.21Z"/><path class="cls-6" d="M35.86,2l-1,1.94,2.06,1.58a10,10,0,0,1,2.31-1.72"/><path class="cls-6" d="M26.24,2.51a5.5,5.5,0,0,1,.92,2.72A4.89,4.89,0,0,1,29,5.07a4,4,0,0,1,.81.06c0-.79,0-2.17,0-2.17l-.19-.08A6.83,6.83,0,0,0,26.24,2.51Z"/><path class="cls-6" d="M52.92,52c-1.12,1.43-3.13.46-4.37,1.74-.41.42-.72,1-1.13,1.42a1.35,1.35,0,0,1-1.56.43,8.35,8.35,0,0,1-.79-.51,2.63,2.63,0,0,0-2.61.08c-.5.24-.61,1.42-1.14,1.57s-1.34,0-.51-.54c1.25-.78,1.32-2.17,3.47-3,.37-.14.45-1.13.74-1.43a3.6,3.6,0,0,1,1.8-.75A18.32,18.32,0,0,1,49,51c.42,0,.86-.54,1.22-.1a14.16,14.16,0,0,1-2.14,2c1.56-1.23,3.31-.44,5-1.05Z"/><circle class="cls-9" cx="11.02" cy="21.73" r="5.04"/><path class="cls-10" d="M17.85,37.3a4.48,4.48,0,0,0,1,2.72c1.54,2.15,3.2,1.88,7.6,1.88,5.14,0,10.4.06,15.54,0,3.75-.06,4.25-3.9,4.21-4.43"/><ellipse class="cls-11" cx="29.86" cy="27.99" rx="0.84" ry="1.47" transform="translate(-8.76 14.43) rotate(-23.8)"/><ellipse class="cls-11" cx="34.56" cy="27.99" rx="1.47" ry="0.84" transform="translate(-5 48.32) rotate(-66.2)"/><path class="cls-10" d="M28.56,28.66c-1.76-4,.48-4.89,2.46-1.83"/><circle class="cls-6" cx="11.63" cy="21.87" r="4.43"/><path class="cls-10" d="M35.86,28.66c2.06-4-.39-5-2.36-1.89"/><circle cx="12.5" cy="21.09" r="3.35"/><path class="cls-12" d="M31.08,33.2h2.39a8.69,8.69,0,0,1,8.69,8.69v0a0,0,0,0,1,0,0H22.38a0,0,0,0,1,0,0v0a8.69,8.69,0,0,1,8.69-8.69Z"/><ellipse class="cls-13" cx="32.29" cy="39.71" rx="3.09" ry="1.86"/><path class="cls-14" d="M42.21,41.89H22.38C24,39.71,24,39.71,25.9,39.71H38.69c1.94,0,2,0,3.52,2.18Z"/><path class="cls-6" d="M25.85,42h-1.7L25,39.92l.5-1.21a.38.38,0,0,1,.71,0l.5,1.21L27.55,42Z"/><path class="cls-6" d="M37.24,42h-1.7l.85-2.06.5-1.21a.38.38,0,0,1,.71,0l.5,1.21L38.93,42Z"/><path class="cls-2" d="M32.42,44.71C31,44.71,27,45,27,45l2.73-.74,1.6-.43a4.34,4.34,0,0,1,2.26,0l1.6.43,2.73.74S33.78,44.71,32.42,44.71Z"/><path class="cls-2" d="M22.76,33.35a10.14,10.14,0,0,0-1.26,1.9L21.88,34l.23-.73a.74.74,0,0,1,.7-.56l.76-.06,1.3-.1A10,10,0,0,0,22.76,33.35Z"/><path class="cls-2" d="M41.42,33.35a10.14,10.14,0,0,1,1.26,1.9L42.29,34l-.23-.73a.74.74,0,0,0-.7-.56l-.76-.06-1.3-.1A10,10,0,0,1,41.42,33.35Z"/><circle class="cls-9" cx="53.61" cy="21.73" r="5.04"/><circle class="cls-6" cx="53.01" cy="21.87" r="4.43"/><circle cx="52.64" cy="21.42" r="3.35"/><path class="cls-15" d="M30.41,68"/><path class="cls-15" d="M24.48,74"/><path class="cls-2" d="M56.84,49.09a3.43,3.43,0,0,1-.6.91l.59-.42.34-.25a.23.23,0,0,0,0-.39l-.29-.31-.5-.53A3.39,3.39,0,0,1,56.84,49.09Z"/><path class="cls-2" d="M32.5,65.87a44.72,44.72,0,0,1-9.91-1.65,17.08,17.08,0,0,0,5.79,2.45,23.63,23.63,0,0,0,4.16.45,18.55,18.55,0,0,0,5-.8,23.1,23.1,0,0,0,5-2.4S36.69,65.87,32.5,65.87Z"/><circle class="cls-11" cx="32.31" cy="57.67" r="1.13"/><path class="cls-10" d="M34.07,57.07c-.79-1.67-2.72-1.75-3.56.11"/><path class="cls-2" d="M22.41,60.29a3,3,0,0,0-3-3h-.27A6.55,6.55,0,1,0,9.85,65a3,3,0,0,0,5.85,1.43,3,3,0,0,0,4.5-3.22A3,3,0,0,0,22.41,60.29Z"/><path class="cls-4" d="M8.39,48.69c.57-3.06,4.39-4.37,4.39-4.37L11.29,36S7,40.54,3.08,43.88c-4.47,3.8-3.05,8-2,9.28S7.89,59.4,7.89,59.4L12.2,54S8.12,50.15,8.39,48.69Z"/><path class="cls-2" d="M9,48.69c.57-3.06,4.39-4.38,4.39-4.38h-.63S9,45.64,8.39,48.69C8.12,50.15,12.2,54,12.2,54l-4,5.06.38.32L12.83,54S8.76,50.15,9,48.69Z"/><path class="cls-3" d="M8.35,48.69c.57-3.06,4.39-4.38,4.39-4.38H12.1s-3.82,1.32-4.39,4.38C7.45,50.15,11.52,54,11.52,54l-4,5.06.38.32L12.16,54S8.08,50.15,8.35,48.69Z"/><path class="cls-16" d="M22.41,59.54a3,3,0,0,0-3-3h-.27a6.55,6.55,0,1,0-9.27,7.71,3,3,0,0,0,5.85,1.43,3,3,0,0,0,4.5-3.22A3,3,0,0,0,22.41,59.54Z"/><path class="cls-16" d="M18.47,56.65a3.3,3.3,0,0,1,.77-.13"/><path class="cls-5" d="M18.66,60.4a3,3,0,0,1,1.55,2"/><path class="cls-16" d="M10.6,62.67a3.25,3.25,0,0,0-.75,1.56"/><path class="cls-5" d="M15.7,65.67a3,3,0,0,0-.85-3.22"/><path class="cls-2" d="M42.26,60.29a3,3,0,0,1,3-3h.27A6.55,6.55,0,1,1,54.82,65,3,3,0,0,1,49,66.42a3,3,0,0,1-4.5-3.22A3,3,0,0,1,42.26,60.29Z"/><path class="cls-4" d="M52.47,54l4.31,5.38s5.73-4.93,6.82-6.23,2.47-5.48-2-9.28C57.66,40.54,53.38,36,53.38,36l-1.24,7.7s3.57,2,4.13,5C56.55,50.15,52.47,54,52.47,54Z"/><path class="cls-2" d="M52.47,54s4.08-3.86,3.81-5.32c-.57-3.06-4.13-5-4.13-5h-.53s3.57,2,4.13,5C56,50.15,51.94,54,51.94,54l4.31,5.38.31-.27Z"/><path class="cls-3" d="M52.95,54s4.08-3.86,3.81-5.32c-.57-3.06-4.13-5-4.13-5h-.53s3.57,2,4.13,5C56.5,50.15,52.42,54,52.42,54l4.31,5.38.31-.27Z"/><path class="cls-16" d="M42.26,59.54a3,3,0,0,1,3-3h.27a6.55,6.55,0,1,1,9.27,7.71A3,3,0,0,1,49,65.67a3,3,0,0,1-4.5-3.22A3,3,0,0,1,42.26,59.54Z"/><path class="cls-16" d="M46.2,56.65a3.3,3.3,0,0,0-.77-.13"/><path class="cls-5" d="M46,60.4a3,3,0,0,0-1.55,2"/><path class="cls-16" d="M54.08,62.67a3.25,3.25,0,0,1,.75,1.56"/><path class="cls-5" d="M49,65.67a3,3,0,0,1,.85-3.22"/></g></g></g></svg>