<svg xmlns="http://www.w3.org/2000/svg" viewBox="0 0 87.01 94.76"><defs><style>.cls-1{fill:#6eaec6;}.cls-2{fill:#64788f;}.cls-3{fill:#f1ede9;}.cls-4{fill:#7a91af;}.cls-11,.cls-5,.cls-9{fill:none;stroke-miterlimit:10;}.cls-5,.cls-9{stroke:#64788f;}.cls-11,.cls-5{stroke-width:1.06px;}.cls-6{fill:#bf8775;}.cls-7{fill:#674f32;}.cls-8{fill:#fff;}.cls-9{stroke-width:5.3px;}.cls-10{fill:#9e876f;}.cls-11{stroke:#d8b4a0;}.cls-12{fill:#eec7b1;}.cls-13{fill:#ceae9c;}</style></defs><title>资源 4</title><g id="图层_2" data-name="图层 2"><g id="_3" data-name="3"><g id="BLUE"><path class="cls-1" d="M44.18,71.11l-2.22,0c-10.88-.19-19.65-3.24-19.15-32.26L23,26c.24-13.79,7.49-18.49,20-20.09L45.3,6C61.4,6.27,64.81,17.54,64.6,29.8l-.33,19.45C63.94,68.16,55.06,71.3,44.18,71.11Z"/><path class="cls-1" d="M23.89,10.44c-1.25,1.63-2.41,3.65-1.16,4.91.64.65,1.94-.54,3.19-2.18a9.62,9.62,0,0,0,1.33-2.34c.13-.35,0-.53,0-.82a2.87,2.87,0,0,0,.07-1.21C26.32,6.17,25.14,8.81,23.89,10.44Z"/><path class="cls-1" d="M25.24,18l3.3-5.07L26.42,11s-2.06,2.38-2,3.76A24.4,24.4,0,0,0,25.24,18Z"/><path class="cls-1" d="M64,9.71c1.19,1.68,2.28,3.73,1,4.95-.67.63-1.92-.61-3.11-2.28A9.62,9.62,0,0,1,60.67,10c-.12-.36.06-.52,0-.82a2.87,2.87,0,0,1,0-1.21C61.77,5.35,62.85,8,64,9.71Z"/><path class="cls-1" d="M62.43,17.2,59.31,12l2.19-1.85s2,2.45,1.92,3.83A24.4,24.4,0,0,1,62.43,17.2Z"/><path class="cls-2" d="M23.75,11.4c-.91,1-1.76,2.26-.85,3,.47.4,1.31-.44,2.33-1.35.72-.64,1.66-2.7,1.26-3.06C25.15,8.84,24.66,10.38,23.75,11.4Z"/><path class="cls-3" d="M20.54,2.65a10.55,10.55,0,0,0-.25,2.66,10.23,10.23,0,0,0,.54,2.3,48.81,48.81,0,0,0,2,5.46c.14.31.34.65.63.66a.74.74,0,0,0,.43-.17,5.92,5.92,0,0,0,2.27-3.48c-1,0-1.65-1.22-2.11-2.26q-1-2.25-1.88-4.56c-.17-.44-.9-2.63-.9-2.63S20.62,2.22,20.54,2.65Z"/><path class="cls-2" d="M64.22,10.48c.88,1,1.68,2.32.74,3.06-.48.38-1.3-.48-2.28-1.43C62,11.46,61.12,9.36,61.53,9,62.91,7.88,63.34,9.44,64.22,10.48Z"/><path class="cls-3" d="M67.65,2a10.55,10.55,0,0,1,.16,2.67A10.23,10.23,0,0,1,67.2,7,48.81,48.81,0,0,1,65,12.38c-.15.3-.36.64-.66.64a.74.74,0,0,1-.42-.19,5.92,5.92,0,0,1-2.15-3.55c1,0,1.69-1.16,2.18-2.19q1.07-2.22,2-4.5c.19-.44,1-2.6,1-2.6S67.59,1.6,67.65,2Z"/><path class="cls-2" d="M44.27,68l-2.26,0c-8.5-.15-14.38-2.66-18.12-16.1a.28.28,0,0,0-.54.11C25.51,68.59,33.07,70.88,42,71l2.22,0c9.67.17,18.88-2.62,19.91-18.28,0-.09-.21-.15-.23-.05C61.19,63.86,53.33,68.13,44.27,68Z"/><path class="cls-4" d="M44.3,66.05,42,66C33.74,65.87,27.12,64,24,51a.2.2,0,0,0-.39.08C25.85,67,33.24,69,42,69.11l2.22,0c9.57.16,18.63-4,19.66-16.54a.26.26,0,0,0-.51-.08C60.63,63.32,53.28,66.21,44.3,66.05Z"/><path class="cls-5" d="M41.79,14.08a11.2,11.2,0,0,0-.06,3.35,23.57,23.57,0,0,0,.76,4.16"/><path class="cls-5" d="M45.52,14.14a11.2,11.2,0,0,1-.06,3.35,23.57,23.57,0,0,1-.9,4.13"/><path class="cls-6" d="M58.13,42.51a6.34,6.34,0,0,0-1.53-.83,4,4,0,0,0-1.79-.36l-5.73-.11a17.93,17.93,0,0,0-2,0c-.47,0-.94.13-1.41.17a18.9,18.9,0,0,1-2.83,0h-.31a18.9,18.9,0,0,1-2.82-.12c-.47-.07-.93-.16-1.4-.22a17.93,17.93,0,0,0-2-.11l-5.73-.09a4,4,0,0,0-1.8.3,6.34,6.34,0,0,0-1.56.78c-3,2.12-2.15,5.31-1,5.93,1,.53,2.59-.1,3-.32s2-.58,2.17-.62L33,46.63a2,2,0,0,1,1.33,0c.33.17.59.54,1,.53s.54-.27.74-.5a5.79,5.79,0,0,1,1.34-1.22A7.56,7.56,0,0,1,41,44.65a.63.63,0,0,1,.62.23c.3.29.8.59,1.1.88l.93-.84a.63.63,0,0,1,.63-.21,7.56,7.56,0,0,1,3.58.94,5.79,5.79,0,0,1,1.3,1.27c.19.24.41.51.72.53s.64-.34,1-.5a2,2,0,0,1,1.33,0l1.5.39c.17,0,1.84.53,2.15.69s2,.91,3,.42C60.1,47.89,61.1,44.74,58.13,42.51Z"/><path class="cls-7" d="M55.94,42.81a6.84,6.84,0,0,0-1.32-.47,6.44,6.44,0,0,0-.81-.17,6.9,6.9,0,0,0-.72,0L48.17,42c-.57,0-1.14,0-1.7,0l-1.21.09c-.8,0-1.62,0-2.42,0h-.26c-.81,0-1.62,0-2.42-.08l-1.2-.13c-.56-.05-1.13-.06-1.7-.07l-4.92-.08a6.9,6.9,0,0,0-.72,0,6.44,6.44,0,0,0-.82.14,6.84,6.84,0,0,0-1.33.43c-2.6,1.17-1.82,3-.79,3.31a5.08,5.08,0,0,0,2.61-.16c.27-.08,1.71-.31,1.86-.33l1.3-.18a2.54,2.54,0,0,1,1.14,0c.28.1.51.31.83.3A1,1,0,0,0,37,45a4.73,4.73,0,0,1,1.14-.68,9.39,9.39,0,0,1,3.1-.44,1.1,1.1,0,0,1,.29,0,.8.8,0,0,1,.24.12c.26.16.69.33,1,.5l.79-.47a.8.8,0,0,1,.24-.11,1.1,1.1,0,0,1,.29,0,9.39,9.39,0,0,1,3.08.54,4.73,4.73,0,0,1,1.12.72,1,1,0,0,0,.62.3c.32,0,.55-.19.84-.28a2.54,2.54,0,0,1,1.14,0l1.29.23c.15,0,1.58.31,1.85.4a5.08,5.08,0,0,0,2.6.25C57.65,45.82,58.49,44.07,55.94,42.81Z"/><path class="cls-8" d="M46.9,32.16A3.94,3.94,0,1,1,39,32c0-2.32,1.82-3.37,4-3.33S46.94,29.84,46.9,32.16Z"/><ellipse cx="42.97" cy="32.09" rx="1.77" ry="1.66" transform="translate(10.14 74.51) rotate(-89.01)"/><path class="cls-3" d="M52.16,45.49l-1.55-.27s.67-1.13,1.07-1.88,1.47-2.95,1.47-2.95a28.22,28.22,0,0,1,.82,3,19.75,19.75,0,0,1,0,2.49Z"/><path class="cls-3" d="M33.37,45.13l1.68-.2s-.61-1.13-1-1.89-1.37-3-1.37-3a28.22,28.22,0,0,0-.92,3,19.74,19.74,0,0,0-.06,2.49Z"/><path class="cls-9" d="M38,24.44c0,2.57,10.22,2.74,10.26.18"/><path class="cls-2" d="M44.07,50.19c-2.59,0-10.33-.94-10.33-.94l5.16.94,3,.55a13.35,13.35,0,0,0,4.28.07l3-.45,5.19-.76S46.66,50.24,44.07,50.19Z"/><path class="cls-2" d="M39.42,55.54a3.51,3.51,0,0,1-.35.9,12.18,12.18,0,0,0-.67,5.8,4.68,4.68,0,0,0,.19,1.3,2.74,2.74,0,0,0,1.5,1.56,4,4,0,0,0,2.18.24,2.12,2.12,0,0,0,1.22-.53c.21-.22.35-.51.62-.65.51-.28,1.1.13,1.58.44a2.59,2.59,0,0,0,1.91.49,2.89,2.89,0,0,0,1.94-2.7c0-.59,0-2.15-.07-2.74-.13-3.37-2.23-5.61-2-8.2.11-1.46,2.48-3.89,2.2-4.54a2,2,0,0,0-.42-.57,7,7,0,0,0-4.75-2.09,1.86,1.86,0,0,0-.72.08c-.57.21-.44,1.15-1,.94a12.35,12.35,0,0,1-1.1-.88c-.68-.44-2.82,0-3.56.27a6,6,0,0,0-1.77,1.26c-.4.38-1.07,1.34-.43,1.36C40.48,47.38,39.51,55,39.42,55.54Z"/><path class="cls-10" d="M37.1,48.33a6.85,6.85,0,0,1,1.52,1,2.66,2.66,0,0,1,.51,1.75,10.53,10.53,0,0,0,0,1.86,5,5,0,0,1,.27,1.66,3.51,3.51,0,0,1-.35.9,12.18,12.18,0,0,0-.67,5.8,4.68,4.68,0,0,0,.19,1.3,2.74,2.74,0,0,0,1.5,1.56,4,4,0,0,0,2.18.24,2.12,2.12,0,0,0,1.22-.53c.21-.22.35-.51.62-.65.51-.28,1.1.13,1.58.44a2.59,2.59,0,0,0,1.91.49,2.89,2.89,0,0,0,1.94-2.7c0-.59,0-2.15-.07-2.74-.13-3.37-1.74-4-1.55-6.59A10.81,10.81,0,0,1,49.28,48a2.4,2.4,0,0,0,.38-2,2,2,0,0,0-.42-.57,7,7,0,0,0-4.75-2.09,1.86,1.86,0,0,0-.72.08c-.57.21-.44,1.15-1,.94a12.35,12.35,0,0,1-1.1-.88c-.68-.44-2.82,0-3.56.27A6,6,0,0,0,36.34,45a2.2,2.2,0,0,0-.65,2A4.45,4.45,0,0,0,37.1,48.33Z"/><path class="cls-11" d="M43,44.37a31.69,31.69,0,0,1,1,5c.4,3.87-.09,5-.09,5"/><path class="cls-2" d="M23.48,40.67s-5.9,2.85-8.81,4.3c-1-1.18-5.25-5.21-8-7.64a1.37,1.37,0,0,0-.36-.73,9.91,9.91,0,0,0-1.67-1l-.22-.15a.13.13,0,0,0-.1,0,8,8,0,0,0-1.23-.54,5,5,0,0,0-1.58-.1,1.89,1.89,0,0,0-1.33.77A1.48,1.48,0,0,0,.59,37.5a.46.46,0,0,1,.19.19.42.42,0,0,1,0,.28,2.05,2.05,0,0,0-.06,1.45,1.06,1.06,0,0,0,1.17.68,2,2,0,0,0,.29,1.58A2,2,0,0,0,4,42a4.61,4.61,0,0,0,.56-.14c1.61,1.66,5.51,5.71,8,8.52,3.23,3.62,11.13,2.33,11.13,2.33Z"/><path class="cls-1" d="M23.77,51.76s-7.9,1.29-11.13-2.33-8.76-9.28-8.76-9.28-.17-6,.59-5.64a133.33,133.33,0,0,1,10.22,9.54c2.91-1.45,8.81-4.3,8.81-4.3Z"/><path class="cls-4" d="M12.66,48.47C9.43,44.85,3.9,39.19,3.9,39.19s0-.78,0-1.76c0,1.38,0,2.72,0,2.72s5.53,5.66,8.76,9.28,11.13,2.33,11.13,2.33l0-1C23.18,50.89,15.76,51.94,12.66,48.47Z"/><path class="cls-12" d="M3.14,34a5,5,0,0,0-1.58-.1,1.89,1.89,0,0,0-1.33.77A1.48,1.48,0,0,0,.6,36.58a.46.46,0,0,1,.19.19.42.42,0,0,1,0,.28A2.05,2.05,0,0,0,.69,38.5a1.06,1.06,0,0,0,1.17.68,2,2,0,0,0,.29,1.58A2,2,0,0,0,4.05,41a2.88,2.88,0,0,0,.88-.27,2.88,2.88,0,0,0,.92-1,6.79,6.79,0,0,0,.69-1.27c.26-.68.43-2.22-.19-2.79A15,15,0,0,0,3.14,34Z"/><path class="cls-11" d="M4,38.72a10.65,10.65,0,0,0-1.7.15A10.86,10.86,0,0,0,.8,39.7"/><path class="cls-11" d="M4.69,37.7a5.68,5.68,0,0,1-1.36,1,6.09,6.09,0,0,1-1.47.53"/><path class="cls-13" d="M.78,36.11a.42.42,0,0,0,0-.28.46.46,0,0,0-.19-.19,1.39,1.39,0,0,1-.52-.75,1.49,1.49,0,0,0,.5,1.69l0,0A3,3,0,0,1,.78,36.11Z"/><path class="cls-13" d="M6.56,37.54a6.79,6.79,0,0,1-.69,1.27,2.88,2.88,0,0,1-.92,1,2.88,2.88,0,0,1-.88.27,2,2,0,0,1-1.89-.28,2,2,0,0,1-.29-1.58,1.06,1.06,0,0,1-1.17-.68,1.4,1.4,0,0,1-.05-.17,1.83,1.83,0,0,0,0,1.11,1.06,1.06,0,0,0,1.17.68,2,2,0,0,0,.29,1.58A2,2,0,0,0,4.05,41a2.88,2.88,0,0,0,.88-.27,2.88,2.88,0,0,0,.92-1,6.79,6.79,0,0,0,.69-1.27,4.41,4.41,0,0,0,.21-1.8A4,4,0,0,1,6.56,37.54Z"/><path class="cls-2" d="M86.82,36.34a1.89,1.89,0,0,0-1.31-.81,5,5,0,0,0-1.58,0,15,15,0,0,0-3.28,1.61,1.35,1.35,0,0,0-.37.69c-2.7,2.22-7.79,6.68-8.91,7.93-2.86-1.55-8.66-4.6-8.66-4.6l-.69,12s7.85,1.56,11.2-1.94c3-3.16,8-7.9,8.91-8.81a4,4,0,0,0,.64.19,2,2,0,0,0,1.9-.21A2,2,0,0,0,85,40.83a1.06,1.06,0,0,0,1.19-.64,2.05,2.05,0,0,0,0-1.45.42.42,0,0,1,0-.29.46.46,0,0,1,.2-.18A1.48,1.48,0,0,0,86.82,36.34Z"/><path class="cls-1" d="M61.28,52.41s7.85,1.56,11.2-1.94,9.07-9,9.07-9,.38-6-.39-5.66A133.33,133.33,0,0,0,70.63,45c-2.86-1.55-8.66-4.6-8.66-4.6Z"/><path class="cls-4" d="M81.41,35.84a3.49,3.49,0,0,0-.41.28,39.79,39.79,0,0,1,0,4.62s-5.39,5.47-8.75,9c-2.67,2.79-6.7,2.23-8.82,2.3l-.07.71s6.75.64,9.4-2.26c3.28-3.58,9.07-9,9.07-9S82.18,35.46,81.41,35.84Z"/><path class="cls-12" d="M83.19,34.79a5,5,0,0,1,1.58,0,1.89,1.89,0,0,1,1.31.81,1.48,1.48,0,0,1-.44,1.93.46.46,0,0,0-.2.18.42.42,0,0,0,0,.29,2.05,2.05,0,0,1,0,1.45,1.06,1.06,0,0,1-1.19.64,2,2,0,0,1-.35,1.57,2,2,0,0,1-1.9.21,2.16,2.16,0,0,1-1.76-1.36,6.79,6.79,0,0,1-.65-1.29c-.23-.69-.35-2.23.28-2.79A15,15,0,0,1,83.19,34.79Z"/><path class="cls-11" d="M82.25,36.58a10.65,10.65,0,0,1,1.69.2,10.86,10.86,0,0,1,1.49.89"/><path class="cls-11" d="M81.51,38.47a5.68,5.68,0,0,0,1.33,1,6.09,6.09,0,0,0,1.45.58"/><path class="cls-13" d="M86.07,35.56a1.64,1.64,0,0,0-.67-.6,1.48,1.48,0,0,1-.52,1.75.46.46,0,0,0-.2.18.42.42,0,0,0,0,.29,2.05,2.05,0,0,1,0,1.45,1.06,1.06,0,0,1-1.19.64,2,2,0,0,1-.35,1.57,2,2,0,0,1-1.9.21,3.06,3.06,0,0,1-.82-.27,2.28,2.28,0,0,0,.7.75,2.88,2.88,0,0,0,.87.3,2,2,0,0,0,1.9-.21A2,2,0,0,0,84.28,40a1.06,1.06,0,0,0,1.19-.64,2.05,2.05,0,0,0,0-1.45.42.42,0,0,1,0-.29.46.46,0,0,1,.2-.18A1.48,1.48,0,0,0,86.07,35.56Z"/><path class="cls-2" d="M38.35,69.71l-8.6-6.35s-4.93,7.42-3.93,12.55c.78,4,1.76,10,2.15,12.52-.58.36-.29,1.51-1.23,1.73-.19,0-.39,0-.57.09a1.42,1.42,0,0,0-.71.81,5,5,0,0,0-.52,1.49,1.89,1.89,0,0,0,.38,1.49,1.48,1.48,0,0,0,2,.16.46.46,0,0,1,.23-.13.42.42,0,0,1,.26.11,2.05,2.05,0,0,0,1.38.45,1.06,1.06,0,0,0,1-.94,2,2,0,0,0,1.6.14c.59-.31.72-1.08.77-1.75v-.2a.22.22,0,0,0,0-.08c.09-1-1.27-13-1.79-15.26C33.3,74.3,38.35,69.71,38.35,69.71Z"/><path class="cls-1" d="M29.09,62.51s-4.93,7.42-3.93,12.55S27.49,88.7,27.49,88.7s4.32,3.23,4.41,2.25-1.27-13-1.79-15.26c2.53-2.24,7.58-6.83,7.58-6.83Z"/><path class="cls-4" d="M37.69,68.85l-8.6-6.35-.23.36,8.1,6s-5.05,4.59-7.58,6.83C29.89,78,31.25,90,31.16,90.93a.23.23,0,0,1,0,.06c.43.17.73.2.75,0,.09-1-1.27-13-1.79-15.26C32.64,73.44,37.69,68.85,37.69,68.85Z"/><path class="cls-12" d="M26.08,89.31c-.19,0-.39,0-.57.09a1.42,1.42,0,0,0-.71.81,5,5,0,0,0-.52,1.49,1.89,1.89,0,0,0,.38,1.49,1.48,1.48,0,0,0,2,.16.46.46,0,0,1,.23-.13.42.42,0,0,1,.26.11,2.05,2.05,0,0,0,1.38.45,1.06,1.06,0,0,0,1-.94,2,2,0,0,0,1.6.14c.59-.31.72-1.08.77-1.75a2.16,2.16,0,0,0-.76-2.08,6.79,6.79,0,0,0-1-1c-.59-.43-2-1-2.74-.57S27,89.08,26.08,89.31Z"/><path class="cls-11" d="M26.78,89.93a10.65,10.65,0,0,0-.31,1.68,10.86,10.86,0,0,0,.41,1.69"/><path class="cls-11" d="M28.8,89.78a5.68,5.68,0,0,1,.56,1.56,6.09,6.09,0,0,1,.13,1.56"/><path class="cls-13" d="M32.18,90.74a2.88,2.88,0,0,0-.74-1.16l-.1-.11a1.66,1.66,0,0,1,.15.39,2.88,2.88,0,0,1,0,.92c-.05.67-.18,1.45-.77,1.75a2,2,0,0,1-1.6-.14,1.06,1.06,0,0,1-1,.94,2.05,2.05,0,0,1-1.38-.45.42.42,0,0,0-.26-.11.46.46,0,0,0-.23.13,1.48,1.48,0,0,1-1.61.12,1.57,1.57,0,0,0,.32.61,1.48,1.48,0,0,0,2,.16.46.46,0,0,1,.23-.13.42.42,0,0,1,.26.11,2.05,2.05,0,0,0,1.38.45,1.06,1.06,0,0,0,1-.94,2,2,0,0,0,1.6.14c.59-.31.72-1.08.77-1.75A2.87,2.87,0,0,0,32.18,90.74Z"/><path class="cls-2" d="M60.93,92.85a5,5,0,0,0-.45-1.51,1.42,1.42,0,0,0-.67-.84c-.18-.07-.38-.07-.57-.12-.92-.26-.6-1.35-1.13-1.76.52-2.64,1.64-8.3,2.52-12.1,1.18-5.09-3.49-12.68-3.49-12.68l-8.82,6s4.89,4.76,7.34,7.09c-.51,2-1.92,11.26-2.25,14.29a2.3,2.3,0,0,0,0,.42,4.37,4.37,0,0,0,0,.48.19.19,0,0,0,0,.12,1.81,1.81,0,0,0,.69,1.55,2,2,0,0,0,1.61-.07,1.06,1.06,0,0,0,.93,1A2.05,2.05,0,0,0,58,94.35a.42.42,0,0,1,.27-.1.46.46,0,0,1,.23.14,1.48,1.48,0,0,0,2-.07A1.89,1.89,0,0,0,60.93,92.85Z"/><path class="cls-1" d="M57.83,63.29S62.5,70.88,61.32,76s-2.8,13.55-2.8,13.55S54.09,92.6,54,91.62s1.72-12.92,2.31-15.19C53.9,74.1,49,69.34,49,69.34Z"/><path class="cls-4" d="M57.35,76.44C54.9,74.12,50,69.36,50,69.36l8.16-5.6-.27-.47-8.82,6S54,74.1,56.42,76.43c-.59,2.27-2.36,14.21-2.31,15.19,0,.28.4.23.93,0C55,90.58,56.76,78.71,57.35,76.44Z"/><path class="cls-12" d="M59.93,89.83c.19.05.39,0,.57.12a1.42,1.42,0,0,1,.67.84,5,5,0,0,1,.45,1.51,1.89,1.89,0,0,1-.45,1.47,1.48,1.48,0,0,1-2,.07.46.46,0,0,0-.23-.14.42.42,0,0,0-.27.1,2.05,2.05,0,0,1-1.39.39,1.06,1.06,0,0,1-.93-1,2,2,0,0,1-1.61.07c-.58-.33-.67-1.12-.7-1.78a2.16,2.16,0,0,1,.85-2,6.79,6.79,0,0,1,1.08-1c.61-.4,2.06-.92,2.76-.45S59,89.56,59.93,89.83Z"/><path class="cls-11" d="M59.2,90.28A10.65,10.65,0,0,1,59.45,92,10.86,10.86,0,0,1,59,93.63"/><path class="cls-11" d="M57.18,90.05a5.68,5.68,0,0,0-.61,1.54,6.09,6.09,0,0,0-.18,1.55"/><path class="cls-13" d="M59.62,93.53a.46.46,0,0,0-.23-.14.42.42,0,0,0-.27.1,2.05,2.05,0,0,1-1.39.39,1.06,1.06,0,0,1-.93-1,2,2,0,0,1-1.61.07c-.58-.33-.67-1.12-.7-1.78a2.16,2.16,0,0,1,.85-2c.17-.17.34-.35.52-.52l-.15.09a6.79,6.79,0,0,0-1.08,1,2.16,2.16,0,0,0-.85,2c0,.67.12,1.45.7,1.78a2,2,0,0,0,1.61-.07,1.06,1.06,0,0,0,.93,1A2.05,2.05,0,0,0,58.42,94a.42.42,0,0,1,.27-.1.46.46,0,0,1,.23.14,1.48,1.48,0,0,0,2-.07,1.45,1.45,0,0,0,.16-.2A1.47,1.47,0,0,1,59.62,93.53Z"/></g></g></g></svg>