<svg xmlns="http://www.w3.org/2000/svg" viewBox="0 0 45.32 94.28"><defs><style>.cls-1{fill:#f5f4cd;}.cls-2{fill:#f4becf;}.cls-3{fill:#b3a06f;}.cls-4{fill:#d9c085;}.cls-10,.cls-5{fill:#fff;}.cls-5{stroke:#000;stroke-miterlimit:10;}.cls-6{fill:#6a7080;}.cls-7{fill:#538fab;}.cls-8{fill:#f6a7a7;}.cls-9{fill:#f27773;}</style></defs><title>资源 3</title><g id="图层_2" data-name="图层 2"><g id="_3" data-name="3"><g id="RABBIT"><ellipse class="cls-1" cx="10.44" cy="13" rx="5.24" ry="12.43" transform="translate(-3.21 3.43) rotate(-16.22)"/><ellipse class="cls-2" cx="10.44" cy="13" rx="4.04" ry="9.58" transform="translate(-3.21 3.43) rotate(-16.22)"/><ellipse class="cls-1" cx="35.34" cy="12.03" rx="12.43" ry="5.24" transform="translate(13.91 42.6) rotate(-73.78)"/><ellipse class="cls-2" cx="35.34" cy="12.03" rx="9.58" ry="4.04" transform="translate(13.91 42.6) rotate(-73.78)"/><polygon class="cls-3" points="45.32 35.32 42.93 33.38 33.76 44.97 36.16 46.91 45.32 35.32"/><polygon class="cls-4" points="6.8 88.41 0 90.18 0.21 83.06 33.11 41.45 39.7 46.78 6.8 88.41"/><polygon class="cls-3" points="41.43 51.18 28.49 40.7 30.74 37.84 43.69 48.33 41.43 51.18"/><line class="cls-5" x1="32.74" y1="48.75" x2="6.18" y2="82.36"/><ellipse class="cls-1" cx="27.69" cy="83.99" rx="2.12" ry="9.54"/><ellipse class="cls-1" cx="17.2" cy="83.99" rx="2.12" ry="9.54"/><path class="cls-6" d="M19.32,78.67c0,2.33.35,2.34-2,2.34-2.83,0-2.21,0-2.21-2.34s.95-4.22,2.12-4.22S19.32,76.34,19.32,78.67Z"/><path class="cls-6" d="M29.83,78.67c0,2.33.35,2.34-2,2.34-2.83,0-2.21,0-2.21-2.34s.95-4.22,2.12-4.22S29.83,76.34,29.83,78.67Z"/><path class="cls-7" d="M18.12,54.27H27A4.32,4.32,0,0,1,31,56.83l1.14,6.56V78.94H12.71l.28-16,.53-5.6A5,5,0,0,1,18.12,54.27Z"/><path class="cls-1" d="M19.94,50.52H24.7a0,0,0,0,1,0,0v6.06a2,2,0,0,1-2,2h-.77a2,2,0,0,1-2-2V50.52A0,0,0,0,1,19.94,50.52Z"/><path class="cls-1" d="M17.24,18.41H28.56A12.32,12.32,0,0,1,40.88,30.73v8.68A15.14,15.14,0,0,1,25.75,54.55H19.88A15.14,15.14,0,0,1,4.75,39.41v-8.5a12.5,12.5,0,0,1,12.5-12.5Z"/><path d="M12.69,28.63h.59a1.52,1.52,0,0,1,1.52,1.52v7.08a0,0,0,0,1,0,0H11.18a0,0,0,0,1,0,0V30.15A1.52,1.52,0,0,1,12.69,28.63Z"/><path d="M31.8,28.63h.59a1.52,1.52,0,0,1,1.52,1.52v7.08a0,0,0,0,1,0,0H30.29a0,0,0,0,1,0,0V30.15A1.52,1.52,0,0,1,31.8,28.63Z"/><ellipse class="cls-1" cx="12.71" cy="63.47" rx="9.44" ry="2.83" transform="translate(-49.99 47.38) rotate(-64.29)"/><path class="cls-6" d="M29.82,90.27c.57-3.65.74-1.31-1.93-1.34-2.21,0-2.71-1.1-2.71-.29,0,1,.06,4.19.06,4.19a1.45,1.45,0,0,0,1.45,1.45l1.23,0,.24,0c2.18,0,4.46-.92,4.46-1.93C32.6,91.6,31.35,90.69,29.82,90.27Z"/><path class="cls-7" d="M13.19,57.31c-1.39,2-2.08,2.36.32,3.55,4,2,3.21.49,3.8-1.66.35-1.29.79-4.19-1-4.44A6.66,6.66,0,0,0,13.19,57.31Z"/><ellipse class="cls-1" cx="32.65" cy="63.75" rx="2.83" ry="9.44" transform="translate(-24.43 20.48) rotate(-25.71)"/><path class="cls-7" d="M32.17,57.31c1.39,2,2.08,2.36-.32,3.55-4,2-3.21.49-3.8-1.66-.35-1.29-.79-4.19,1-4.44A6.66,6.66,0,0,1,32.17,57.31Z"/><path class="cls-6" d="M14.83,90.27c-.57-3.65-.74-1.31,1.93-1.34,2.21,0,2.71-1.1,2.71-.29,0,1-.06,4.19-.06,4.19A1.45,1.45,0,0,1,18,94.28l-1.23,0-.24,0c-2.18,0-4.46-.92-4.46-1.93C12,91.6,13.3,90.69,14.83,90.27Z"/><ellipse class="cls-8" cx="32.09" cy="37.23" rx="4.49" ry="1.25"/><ellipse class="cls-8" cx="12.99" cy="37.23" rx="4.49" ry="1.25"/><path class="cls-9" d="M22.49,41.52h.71a.57.57,0,0,1,.49.85l-.36.62-.26.45a.68.68,0,0,1-1.18,0L21.64,43l-.36-.62a.57.57,0,0,1,.49-.85Z"/><path d="M26.82,48.29a1.71,1.71,0,0,1-1.15,1.64,20.29,20.29,0,0,1-6.36,0,1.71,1.71,0,0,1-1.15-1.64v0a1.67,1.67,0,0,1,1.63-1.71h5.41a1.67,1.67,0,0,1,1.63,1.71Z"/><rect class="cls-10" x="21.1" y="46.49" width="1.36" height="1.34" rx="0.56" ry="0.56"/><rect class="cls-10" x="22.83" y="46.49" width="1.36" height="1.34" rx="0.56" ry="0.56"/></g></g></g></svg>