<?xml version="1.0" encoding="utf-8"?>
<!-- Generator: Adobe Illustrator 21.0.0, SVG Export Plug-In . SVG Version: 6.00 Build 0)  -->
<svg version="1.1" id="图层_1" xmlns="http://www.w3.org/2000/svg" xmlns:xlink="http://www.w3.org/1999/xlink" x="0px" y="0px"
	 viewBox="0 0 293.9 488.5" style="enable-background:new 0 0 293.9 488.5;" xml:space="preserve">
<style type="text/css">
	.st0{fill:#AA548C;}
	.st1{fill:#7C3966;}
	.st2{fill:#FFFFFF;}
	.st3{fill:#AB7667;}
	.st4{fill:#F1EDE9;}
	.st5{fill:#685474;}
	.st6{fill:#807D76;}
	.st7{fill:#E4B5B9;}
	.st8{clip-path:url(#SVGID_2_);}
	.st9{fill:#96497C;}
</style>
<path class="st0" d="M290.2,433.9c-9.2-17.9-44.3-43.3-44.1-65.8c1-106.2,111.8-366-93.6-368C-55.9-2,51.8,286.4,51,368.4
	c-0.2,22.7-37.5,45.8-47.3,63.8c-5.8,10.5,1.8,23.3,13.7,23.4c0,0,82.4,22,133.5,22.5c41.3,0.4,125.1-21.2,125.1-21.2
	C287.9,457.1,295.6,444.5,290.2,433.9z"/>
<g>
	<path class="st1" d="M275.8,453.6c0,0-83.7,21.6-125.1,21.2c-51.1-0.5-133.5-22.5-133.5-22.5c-6.5-0.1-12.6-11.4-15-16.6
		C-4.7,449.3,5.8,463,17.1,466c32.1,8.5,82.4,22,133.5,22.5c41.3,0.4,94.3-12.9,125.1-21.2c11.3-3,23.1-13,16.1-27
		C289.2,445.4,282.3,453.7,275.8,453.6z"/>
</g>
<path class="st2" d="M257.3,111c-0.7,68.1-40,39.5-106.3,38.8C83.4,149.2,45.6,177,46.5,108.9C47,67.6,84.5,34.4,147.2,35
	C215.5,35.7,257.7,69.7,257.3,111z"/>
<ellipse transform="matrix(9.861205e-03 -1 1 9.861205e-03 58.0627 243.5935)" cx="152" cy="92.5" rx="30" ry="30"/>
<path class="st3" d="M187.3,238.8c-5.4,10.3-26.5,23.7-37.2,23.6c-10.5-0.2-30.9-14-36-24.3c-4.1-8.2-1.6-32.6-0.2-43.2
	c0.4-2.9,2.6-5.1,5.2-5l64.1,0.6c2.6,0,4.8,2.2,5.1,5.1C189.5,206.3,191.5,230.8,187.3,238.8z"/>
<path class="st4" d="M147.4,215.2l-14.2-0.1c-0.8,0-1.5-0.7-1.5-1.5l0.2-23.6l17.3,0.2l-0.2,23.6
	C148.9,214.5,148.2,215.2,147.4,215.2z"/>
<path class="st4" d="M171.9,215.4l-14.2-0.1c-0.8,0-1.5-0.7-1.5-1.5l0.2-23.6l17.3,0.2l-0.2,23.6
	C173.4,214.8,172.7,215.5,171.9,215.4z"/>
<path class="st5" d="M150.3,273.3c-7.6-0.1-30.2-3.9-30.2-3.9l15.1,4.2l8.8,2.5c4.1,1.1,8.4,1.2,12.5,0.1l8.9-2.3l15.1-3.9
	C180.5,269.9,157.9,273.3,150.3,273.3z"/>
<path class="st5" d="M152.4,23.3c-20.6-0.2-40,6.5-40,6.5s12.9-11.1,39.3-10.8c28,0.3,37.4,10.8,37.4,10.8S172.7,23.5,152.4,23.3z"
	/>
<ellipse transform="matrix(9.861205e-03 -1 1 9.861205e-03 -85.4981 385.1521)" class="st6" cx="151.7" cy="235.7" rx="7.7" ry="16"/>
<path class="st7" d="M112.9,235.4c0.3,1.7,1.7,3.4,2.3,4.5c5,9.7,25.6,22.6,35.9,22.8c10.4,0.2,30.9-12.5,36.2-22.3
	c0.6-1.1,1.1-2.6,1.4-4.3L112.9,235.4z"/>
<g>
	<defs>
		<path id="SVGID_1_" d="M290.2,433.9c-9.2-17.9-44.3-43.3-44.1-65.8c1-106.2,111.8-366-93.6-368C-55.9-2,51.8,286.4,51,368.4
			c-0.2,22.7-37.5,45.8-47.3,63.8c-5.8,10.5,2.2,20.2,13.7,23.4c32.7,9.2,82.4,22,133.5,22.5c41.3,0.4,125.1-21.2,125.1-21.2
			C287.9,457.1,295.6,444.5,290.2,433.9z"/>
	</defs>
	<clipPath id="SVGID_2_">
		<use xlink:href="#SVGID_1_"  style="overflow:visible;"/>
	</clipPath>
	<g class="st8">
		<path class="st9" d="M219.4,600.1c-25.7,7.1-66.7,17.2-99.6,16.8c-40.7-0.4-81.2-10.2-106.3-17.9c-5-1.5-9.3-3.1-11.3-7.3
			c-4.1,8.3,1.8,18.1,11.2,18.2c0,0,65.7,17.5,106.3,17.9c32.9,0.3,99.8-16.1,99.8-16.1c9.3,0.1,15.3-10.3,11.4-18.7
			C228.7,597.2,224.4,598.7,219.4,600.1z"/>
	</g>
</g>
</svg>
