<?xml version="1.0" encoding="utf-8"?>
<!-- Generator: Adobe Illustrator 20.0.0, SVG Export Plug-In . SVG Version: 6.00 Build 0)  -->
<svg version="1.1" id="Layer_1" xmlns="http://www.w3.org/2000/svg" xmlns:xlink="http://www.w3.org/1999/xlink" x="0px" y="0px"
	 viewBox="0 0 99.6 577.5" style="enable-background:new 0 0 99.6 577.5;" xml:space="preserve">
<style type="text/css">
	.st0{fill:#F9D9E5;}
	.st1{fill:#D3D1B2;stroke:#B9B79F;stroke-miterlimit:10;}
</style>
<g id="Layer_2">
	<rect y="-0.1" class="st0" width="99.6" height="580.1"/>
</g>
<g id="Layer_1_1_">
	<path class="st1" d="M4-11c8.4,39.1,7.3,91.5,7,102.6c-0.3,11.3,4.9,15,6.6,17.8c1.7,2.8-6.6,24.3-6.6,24.3l3.4,23.4l3.4,6.5
		c0,0-0.6,9.3,0,12.1c0.6,2.8,1.1,7.5,0,10.3c-1.1,2.8-4.4,3.8,0.6,6.5c5.2,2.8,5.2,19.6,6,28.1c0.9,8.5,0,31.9,0,31.9l-6.6,45.8
		v54.3l-6.9,24.3l6.9,3.8v13.1h40.5l14.1,5.1l22.6,2.3l-23.9,3.9H54.7H21.9l-11,39.3c0,0,3.7,61.8,0,62.5c-3.7,1,5.8,12.1,5.8,12.1
		h-6.6l-4.2,60.7c0,0,207.5,24.3,566.3,0v-12.1c0,0-10.4-13.1-11.2-15.9c-0.9-2.8-0.9-11.3-0.9-11.3s-0.9-3.8,0.9-10.3
		c1.7-6.5,5.2-15.9,5.2-15.9l-1.7-7.5l-5.2-17.8l3.5-9.3l0.9-5.6l-1.7-7.5l3.5-28.1l-41.3-3.8l11.2-2.8l29.4-1l-3.5-21.6
		c0,0-1.7-15-1.7-22.4c0-7.5,9.5-85.1,9.5-85.1v-4.7c0,0,5.2-36.5,5.2-40.2c0-3.7-1.7-17.8-1.7-17.8s5.2-4.8,3.5-11.3
		c-4-14.4,2.8-35.6,3.5-37.4c1.4-3.8-3.5-28.1-3.5-28.1l6.9-41.9c0,0,6.3-51.5,3.5-55.1c-2.8-3.8-2.8-34.5-0.9-37.4
		c1.7-2.8,1.7-29.9,1.7-29.9l17.2-29.2C603.9-30.9,83.6,17.8,4-11z"/>
</g>
</svg>
