<?xml version="1.0" encoding="utf-8"?>
<!-- Generator: Adobe Illustrator 21.0.0, SVG Export Plug-In . SVG Version: 6.00 Build 0)  -->
<svg version="1.1" id="图层_1" xmlns="http://www.w3.org/2000/svg" xmlns:xlink="http://www.w3.org/1999/xlink" x="0px" y="0px"
	 viewBox="0 0 392.8 375.5" style="enable-background:new 0 0 392.8 375.5;" xml:space="preserve">
<style type="text/css">
	.st0{fill:#D3D1B2;stroke:#B9B79F;stroke-miterlimit:10;}
</style>
<path class="st0" d="M5.6,11.4c5.5,23.6,0.2,56.3,0,63c-0.2,6.8,3.2,9,4.3,10.7c1.1,1.7-4.3,14.6-4.3,14.6l2.2,14.1l2.2,3.9
	c0,0-0.4,5.6,0,7.3c0.4,1.7,0.7,4.5,0,6.2s-2.9,2.3,0.4,3.9c3.4,1.7,3.4,11.8,3.9,16.9c0.6,5.1,0,19.2,0,19.2l-4.3,27.6v32.7
	l-4.5,14.6l4.5,2.3v7.9h35.8l3.4,3.4h30.4l-28.2,3.4H34.1H12.7l-7.2,23.7c0,0,2.4,37.2,0,37.7c-2.4,0.6,3.8,7.3,3.8,7.3H5l-3,36.6
	c0,0,135.8,14.6,370.1,0v-7.3c0,0-6.8-7.9-7.3-9.6c-0.6-1.7-0.6-6.8-0.6-6.8s-0.6-2.3,0.6-6.2c1.1-3.9,3.4-9.6,3.4-9.6l-1.1-4.5
	l-3.4-10.7l2.3-5.6l0.6-3.4l-1.1-4.5l2.3-16.9l-27-2.3l7.3-1.7l19.2-0.6l-2.3-13c0,0-1.1-9-1.1-13.5s6.2-51.3,6.2-51.3v-2.8
	c0,0,3.4-22,3.4-24.2s-1.1-10.7-1.1-10.7s3.4-2.9,2.3-6.8c-2.6-8.7,1.8-21.4,2.3-22.5c0.9-2.3-2.3-16.9-2.3-16.9l4.5-25.3
	c0,0,4.1-31,2.3-33.2c-1.8-2.3-1.8-20.8-0.6-22.5c1.1-1.7,1.1-18,1.1-18l11.2-17.5C392.8,0.6,57.6,28.8,5.6,11.4z"/>
</svg>
