<?xml version="1.0" encoding="utf-8"?>
<!-- Generator: Adobe Illustrator 20.0.0, SVG Export Plug-In . SVG Version: 6.00 Build 0)  -->
<svg version="1.1" xmlns="http://www.w3.org/2000/svg" xmlns:xlink="http://www.w3.org/1999/xlink" x="0px" y="0px"
	 viewBox="0 0 68.3 554.7" style="enable-background:new 0 0 68.3 554.7;" xml:space="preserve">
<style type="text/css">
	.st0{fill:#F9D9E5;}
	.st1{fill:#D3D1B2;stroke:#B9B79F;stroke-miterlimit:10;}
</style>
<g id="Layer_2">
	<rect class="st0" width="79.5" height="554.7"/>
</g>
<g id="Layer_1">
	<path class="st1" d="M-511.3,8.5c8.4,36.1,0.3,86.2,0,96.5c-0.3,10.4,4.9,13.8,6.6,16.4s-6.6,22.4-6.6,22.4l3.4,21.6l3.4,6
		c0,0-0.6,8.6,0,11.2c0.6,2.6,1.1,6.9,0,9.5s-4.4,3.5,0.6,6c5.2,2.6,5.2,18.1,6,25.9c0.9,7.8,0,29.4,0,29.4l-6.6,42.3v50.1
		l-6.9,22.4l6.9,3.5v12.1h40.5l14.1,4.7l22.6,2.1l-23.9,3.6h-16.4h-32.8l-11,36.3c0,0,3.7,57,0,57.7c-3.7,0.9,5.8,11.2,5.8,11.2
		h-6.6l-4.6,56c0,0,207.9,22.4,566.7,0v-11.2c0,0-10.4-12.1-11.2-14.7c-0.9-2.6-0.9-10.4-0.9-10.4s-0.9-3.5,0.9-9.5
		c1.7-6,5.2-14.7,5.2-14.7l-1.7-6.9L37,471.4l3.5-8.6l0.9-5.2l-1.7-6.9l3.5-25.9L2,421.3l11.2-2.6l29.4-0.9L39,397.9
		c0,0-1.7-13.8-1.7-20.7c0-6.9,9.5-78.5,9.5-78.5v-4.3c0,0,5.2-33.7,5.2-37.1s-1.7-16.4-1.7-16.4s5.2-4.4,3.5-10.4
		c-4-13.3,2.8-32.8,3.5-34.5c1.4-3.5-3.5-25.9-3.5-25.9l6.9-38.7c0,0,6.3-47.5,3.5-50.8c-2.8-3.5-2.8-31.8-0.9-34.5
		C65,43.5,60.2,18,60.2,18c-5.5-2.8-5.8-7.9-10.3-18C29.1-34.3-437.4,25.4-511.3,8.5z"/>
</g>
</svg>
