<?xml version="1.0" encoding="utf-8"?>
<!-- Generator: Adobe Illustrator 19.2.1, SVG Export Plug-In . SVG Version: 6.00 Build 0)  -->
<svg version="1.1" id="Layer_1" xmlns="http://www.w3.org/2000/svg" xmlns:xlink="http://www.w3.org/1999/xlink" x="0px" y="0px"
	 viewBox="0 0 137.3 143.2" style="enable-background:new 0 0 137.3 143.2;" xml:space="preserve">
<style type="text/css">
	.st0{fill:#77573F;}
	.st1{fill:#4CAE3F;}
	.st2{fill:#7EAD40;}
	.st3{fill:#749B37;}
	.st4{fill:#3A8E31;}
	.st5{fill:#43A72C;}
</style>
<path class="st0" d="M69.8,141.8c0,0-1.3,0.8-3.7,1.1c-2.6,0.4-5.4,0.3-7.7-0.5l-3-1.5L63,60.8l1.5-0.2l0.4,52.9L69.8,141.8z"/>
<polygon class="st0" points="50.2,73.3 48.9,74.5 61.1,89.8 61.4,84 "/>
<polygon class="st0" points="74.8,85.2 74.5,86.8 61.7,93 63.6,89.9 "/>
<polygon class="st0" points="71.9,74.1 72.2,75.4 63,82.8 63.6,80.5 "/>
<polygon class="st0" points="60.1,100.4 51.7,97.1 52,95.8 60.7,98 "/>
<path class="st3" d="M55.4,73.1C44.7,85,4.7,89.4,0.2,70.1C-3,56.3,32.5,55.7,32.5,55.7S1.5,44.9,2.4,33.8
	c0.6-6.9,14.5-7.9,25.3-5.8c-0.1-5.2,23.2-39.7,32.3-13c30-33.9,53.8-3.7,53,27.5c16.2-7.4,22.6,5.6,4.7,18.1
	c33.6,9.2,20,21.4-10.6,26.4c-16.2,2.7-27.9-4.3-27.9-6c-4,2.2-13.7,0.7-13.8-4.7C62.9,78.9,55.4,77.9,55.4,73.1z"/>
<ellipse transform="matrix(4.802559e-02 -0.9988 0.9988 4.802559e-02 -50.7953 137.6586)" class="st3" cx="46.8" cy="95.5" rx="3.6" ry="8.7"/>
</svg>
