<svg id="Layer_1" data-name="Layer 1" xmlns="http://www.w3.org/2000/svg" viewBox="0 0 20.89 24.99"><defs><style>.cls-1{fill:#2c2922;}.cls-2{fill:#1c1912;}.cls-3{fill:#35312a;}</style></defs><title>stones</title><path class="cls-1" d="M0.31,17.4C-1.66,5.15,6.24-3.84,12,1.64S22,12.84,20.63,17.4,11.5,26.54,8.07,24.49,1.22,23.11.31,17.4Z"/><path class="cls-2" d="M10.44,19.69c-3.33,0-7.75-5.4-10.18-9.46h0a22.85,22.85,0,0,0,0,7.17c0.91,5.71,4.34,5,7.77,7.08,3,1.78,9.17-1.4,11.68-5.25C16.64,21.19,13.77,19.69,10.44,19.69Z"/><path class="cls-3" d="M8.38,7.43c3.55,0.33,8.59,4,10.54,2.39a43.45,43.45,0,0,0-7-8.18C8.92-1.27,5.28-.1,2.81,3.47,3.21,5.58,5.88,7.2,8.38,7.43Z"/></svg>