<svg id="Layer_1" data-name="Layer 1" xmlns="http://www.w3.org/2000/svg" viewBox="0 0 50.36 41.78"><defs><style>.cls-1{fill:#2c2922;}.cls-2{fill:#35312a;}.cls-3{fill:#1c1912;}</style></defs><title>stones</title><path class="cls-1" d="M42.73,10.5c9.22,5.68,10.48,28.22,1.62,30.7s-7.74-3.91-13.12-1.12S14,38.32,9.51,40.61-2.64,21.65.91,15.9s15.54-1.42,19.26-6.46,0-11,9.2-9S33.51,4.82,42.73,10.5Z"/><path class="cls-2" d="M44.84,12.24a10.85,10.85,0,0,0-2.11-1.74C33.51,4.82,38.53,2.37,29.36.39,28.94,0.3,28.55.23,28.17,0.17h0c1,2.19,6.16,11.7,8.27,11.7S40.56,14.42,44.84,12.24Z"/><path class="cls-2" d="M16.66,13.12c2.57-.56,4.83.56,6.16-1.25s0.64-5.59,0-9.83h0C22,3.92,22.11,6.8,20.17,9.43c-1.2,1.63-3.26,2.27-5.62,2.6A1.78,1.78,0,0,0,16.66,13.12Z"/><path class="cls-3" d="M46.11,39.36c-2.72-.15-4.38,0-6.65-2.64s-2.72-5.52-6.34-5-7.7,3.55-11.93,3.55-8,0-10.72,1.21-7.2-2.54-8.09-4.76c2,5.53,5,10,7.14,8.88,4.46-2.28,16.33,2.26,21.71-.53s4.26,3.61,13.12,1.12a6,6,0,0,0,2.54-1.5A0.94,0.94,0,0,0,46.11,39.36Z"/></svg>