<svg id="Layer_1" data-name="Layer 1" xmlns="http://www.w3.org/2000/svg" viewBox="0 0 17.81 27.19"><defs><style>.cls-1{fill:#35312a;}.cls-2{fill:#2c2922;}.cls-3{fill:#1c1912;}</style></defs><title>stones</title><path class="cls-1" d="M8.16,1.08c3.2,0.55,4.58,0,5.46,1.8a31,31,0,0,0,3.73,5.06C15.71-.76,10.26-1,8.16,1.08Z"/><path class="cls-2" d="M0.26,20c-2-8.66,8.11-12.24,7.12-16.53s10.23-7.75,10.43,9.59S8.22,28,5.16,25.32,1.49,25.32.26,20Z"/><path class="cls-3" d="M10.22,20.85c-3.64-2-8.29-.63-10.21-3.53H0A9.65,9.65,0,0,0,.26,20c1.22,5.31,1.84,2.65,4.9,5.31s11.92,4.85,12.61-9.88C15.45,18.25,12.35,22,10.22,20.85Z"/></svg>