<svg id="Layer_1" data-name="Layer 1" xmlns="http://www.w3.org/2000/svg" viewBox="0 0 23.55 19.7"><defs><style>.cls-1{fill:#2c2922;}.cls-2{fill:#35312a;}.cls-3{fill:#1c1912;}</style></defs><title>stones</title><path class="cls-1" d="M6.15,18.22c-10.95-4.59-4.9-14.39,0-15.53s12-6.52,15.78,2.16,0.27,14.64-3.8,14.64S11.51,20.47,6.15,18.22Z"/><path class="cls-2" d="M6.63,2.57a30.26,30.26,0,0,0,7.62-.19c3.18-.47,4.48,1,5.42,1.31a7.64,7.64,0,0,0,1.76.12C17.65-3.12,11.28,1.29,6.63,2.57Z"/><path class="cls-3" d="M18.13,19.49c1.91,0,3.69-1.33,4.66-3.62-1.59,1.65-2.58-.12-4.25,1.18s-4.48-.19-6.76-0.84A80.7,80.7,0,0,0,1.33,14.75a11.23,11.23,0,0,0,4.82,3.47C11.51,20.47,14.06,19.49,18.13,19.49Z"/></svg>