<svg id="Layer_1" data-name="Layer 1" xmlns="http://www.w3.org/2000/svg" viewBox="0 0 49.6 39.41"><defs><style>.cls-1{fill:#2c2922;}.cls-2{fill:#1c1912;}.cls-3{fill:#35312a;}</style></defs><title>stones</title><path class="cls-1" d="M4.72,17.15C15.06,5.93,12.57,2,19.65.14s27.87,14.16,29.69,21-6.85,8.68-8.45,16.22S9.44,28.7,4.72,33.49-3,25.51,4.72,17.15Z"/><path class="cls-2" d="M4.72,33.49C9.44,28.7,39.3,44.91,40.9,37.38c1.09-5.12,5.44-7.61,7.55-10.82a3.81,3.81,0,0,0-1.77-.62c-4.52-.37-8.28,5.78-10.84,7.14S15.66,19.53,14,16.67,6.63,22.24,3.88,26.6c-2.26,3.57-2,5.93-.86,7.91A3.19,3.19,0,0,0,4.72,33.49Z"/><path class="cls-3" d="M43.4,13.19C37,7.07,27.24.59,21.63,0a4.3,4.3,0,0,0,0,1.13A6.73,6.73,0,0,0,26.29,7.4c3.77,1.32,9.26,1.85,10.65,3.31S43.16,14.81,43.4,13.19Z"/></svg>