<svg id="Layer_1" data-name="Layer 1" xmlns="http://www.w3.org/2000/svg" viewBox="0 0 24.64 20.9"><defs><style>.cls-1{fill:#2c2922;}.cls-2{fill:#1c1912;}.cls-3{fill:#35312a;}</style></defs><title>stones</title><path class="cls-1" d="M5.46,0.06c6.33-.64,19.18,3.68,19.18,13.36s-19.85,9.2-20.33,2.9S-5.84,1.2,5.46.06Z"/><path class="cls-2" d="M18.66,20.15a8,8,0,0,0-1.28-.34c-1.64-.23-6.47-5.59-7.94-7.94C8.1,9.73,3.19,7.75.67,6.82c1.15,3,3.41,6.54,3.64,9.51C4.62,20.34,12.78,22,18.66,20.15Z"/><path class="cls-3" d="M24.09,10.1C21.58,2.76,11-.5,5.46.06,3.18,0.29,1.77.84,0.95,1.6c2.84-.09,10.68.23,13.3,1.84S21.14,9.59,24.09,10.1Z"/></svg>