<svg id="Layer_1" data-name="Layer 1" xmlns="http://www.w3.org/2000/svg" viewBox="0 0 328.88 384.15"><defs><style>.cls-1{fill:#544834;}.cls-2{fill:#42392b;opacity:0.6;}.cls-3{fill:#63431d;}.cls-4{fill:#754e1b;}.cls-5{fill:#895c1a;}</style></defs><title>tree</title><path class="cls-1" d="M210.28,252.89l-0.39,6.33L178,277.78a0.83,0.83,0,0,1-1.22-.92l2.7-10.39a0.83,0.83,0,0,1,.47-0.55Z"/><path class="cls-1" d="M205,223.27l0.76,4L178.6,250.92a0.83,0.83,0,0,1-1.35-.8l1.32-6.17a0.83,0.83,0,0,1,.3-0.48Z"/><path class="cls-1" d="M115.78,209.77l-3.84,3.55,34.72,42.31a0.83,0.83,0,0,0,1.46-.48l0.69-13.31a0.83,0.83,0,0,0-.25-0.64Z"/><path class="cls-1" d="M202.55,379s-13.79,3.41-24.56,4.74c-10.3,1.28-31.95-.67-39.12-2.68L130.39,378l14.74-212.26h30l12.37,143.09Z"/><path class="cls-2" d="M202.55,379c-2.06.57-12.67,2.89-16.45,3.52-1.9.32-9.78-68.71-9.39-71.91s-5.92-122.07-5.54-124.82,5.62,0.62,5.62.62,10.14,113.51,10.76,122.36a0.69,0.69,0,0,0,0,.1Z"/><polygon class="cls-2" points="205.39 225.56 182 244.87 182.19 247.73 205.7 227.33 205.39 225.56"/><polygon class="cls-2" points="139.8 242.3 139.49 246.89 111.94 213.32 113.63 211.76 139.8 242.3"/><polygon class="cls-2" points="184.22 270.16 184.55 273.92 209.91 259.21 210.03 257.02 184.22 270.16"/><path class="cls-3" d="M240.19,21.56c19.7,5.47,60,22.19,62.32,61.68,1.52,26.14-8.85,32.8-14.44,40.12,58.46-12.26,52.43,77.26-7.23,88-71.36,12.84-82.92-13.05-82.92-19.34-2.78,7.24-63.92,11.4-64.48-9.41C126.91,183,47,224.31,6,160.39c-23.56-36.75,28.34-65.93,48.77-59.12C32.7,89.12,69.28,38.55,108.63,65c18.81-5.46,24.57-28,27.41-17C140.54,17.66,202.31,11,240.19,21.56Z"/><path class="cls-4" d="M240.19,20.76c19.7,5.47,59.08,21,61.37,60.53,1.52,26.14-6.13,34.73-11.72,42.06,55.88-11.38,49.93,73.19-6.77,82.73-55.6,9.36-83-14.29-83-20.57-2.78,7.24-66.07,7.76-66.64-13-6.53.36-82.61,34.62-125.18-17.35-27.66-33.77,26.53-58.82,46.53-54.64C32.7,88.32,69.28,37.75,108.63,64.24c8.82-9,24.57-28,27.41-17C140.54,16.86,202.31,10.24,240.19,20.76Z"/><path class="cls-5" d="M241.26,6.16c12.31,5.15,60.63,28.38,62.93,67.87,1.52,26.14-4.26,37.34-9.85,44.67,44.52-2.21,47.18,70.15-9.72,75.16-66.35,5.84-73.69-16.75-73.69-23-2.78,7.24-76.93,11-77.5-9.83-6.53.36-72.93,33.26-121.12-5.05-29.88-23.75,10.82-63.18,29.8-57.46C18.73,78,47.62,23.33,93.63,43c-9.11-21.35,23.78-33.08,39.8-17C137.94-4.41,217.23-3.9,241.26,6.16Z"/></svg>