<svg id="Layer_1" data-name="Layer 1" xmlns="http://www.w3.org/2000/svg" viewBox="0 0 346.19 386.29"><defs><style>.cls-1{fill:#443d32;}.cls-2{fill:#28241e;opacity:0.6;}.cls-3{fill:#513b09;}.cls-4{fill:#5e4410;}.cls-5{fill:#6d4f1b;}</style></defs><title>tree</title><polygon class="cls-1" points="155.69 345.31 135.21 330 136.99 327.9 158.99 341.64 155.69 345.31"/><polygon class="cls-2" points="136 329.07 153.07 341.42 152.22 342.72 135.21 330 136 329.07"/><polygon class="cls-1" points="127.19 223.53 127.54 229.41 158.75 247.54 155.69 235.76 127.19 223.53"/><polygon class="cls-1" points="132.12 196.05 131.41 199.78 158.31 223.21 156.55 214.96 132.12 196.05"/><polygon class="cls-1" points="214.86 183.52 218.42 186.82 184.95 227.6 184.19 212.93 214.86 183.52"/><path class="cls-1" d="M137.42,380.94a123.65,123.65,0,0,0,19.72,4.89c9.55,1.42,29.64-.75,36.3-3l7.86-3.43L179,143.53l-18.31-.87-9.3,160Z"/><path class="cls-2" d="M137.42,380.94s11,3.51,14.93,4c1.78,0.24,9.41-76.76,9-80.33s0.35-104.35,0-107.41-4,.87-4,0.87-5.5,95-6.05,104.55Z"/><ellipse class="cls-3" cx="224.9" cy="248.52" rx="26.01" ry="10.78" transform="translate(-11.68 11.09) rotate(-2.75)"/><ellipse class="cls-4" cx="224.3" cy="248.39" rx="20.39" ry="8.45" transform="translate(-11.67 11.06) rotate(-2.75)"/><ellipse class="cls-5" cx="219.99" cy="249.3" rx="12.91" ry="5.35" transform="translate(-11.72 10.85) rotate(-2.75)"/><polygon class="cls-1" points="185.84 261.95 210.61 252.43 209.76 248.52 184.19 255.01 185.84 261.95"/><polygon class="cls-2" points="127.44 227.7 154.82 242.65 154.65 245.2 127.54 229.41 127.44 227.7"/><polygon class="cls-2" points="210.23 250.69 189.75 258.07 190.04 260.34 210.61 252.43 210.23 250.69"/><polygon class="cls-2" points="136.41 202.29 156.22 218.56 156.04 221.21 136.21 203.99 136.41 202.29"/><polygon class="cls-2" points="186.34 221.34 186.72 225.45 213.57 192.86 211.78 191.69 186.34 221.34"/><path class="cls-3" d="M96,12.8C74.9,18.67,31.64,36.61,29.17,79c-1.63,28,8.18,38.93,14.18,46.79-62.74-13.16-55.36,81.82,9.08,90.7,82.12,11.32,89-14,89-20.76,3,7.77,51.7,6.55,52.31-15.78,7,0.39,86.27,91.15,146.56-21.52,22.1-41.3-23.34-67.4-45.27-60.09,23.7-13-15.56-67.3-57.78-38.88-20.18-5.85-26.37-30-29.41-18.23C203,8.62,136.7,1.51,96,12.8Z"/><path class="cls-4" d="M96,12.8c-21.14,5.87-63.4,22.58-65.86,65-1.63,28,7.16,40.16,13.16,48-60-12.21-55.1,73.91,9.34,82.79,82.12,11.32,82.52-14.64,82.52-21.39,3,7.77,53.93,3.67,54.54-18.66,7,0.39,84.43,97.46,144.72-15.2,22.1-41.3-18-59.46-39.46-55,23.7-13-15.56-67.3-57.78-38.88-9.46-9.64-26.37-30-29.41-18.23C203,8.62,136.7,1.51,96,12.8Z"/><path class="cls-5" d="M93.23,5c-21.14,5.87-63.4,22.58-65.86,65C25.74,98,31.94,110,37.94,117.9c-47.78-2.38-51.07,72.42,13.72,78.17,71.2,6.32,75.78-15.5,75.78-22.24,3,7.77,61.7,5.13,62.31-17.2,7,0.39,79.66,79.82,137.69-12.75,21.75-34.7-12.06-51.69-32.43-45.54,23.7-13-18.38-75.09-60.6-46.67,16-21.71-26.37-30-29.41-18.23C200.16,0.83,133.88-6.28,93.23,5Z"/></svg>