<svg id="Layer_1" data-name="Layer 1" xmlns="http://www.w3.org/2000/svg" viewBox="0 0 347.18 438.29"><defs><style>.cls-1{fill:#6d5535;}.cls-2{fill:#846538;}.cls-3{fill:#a57e37;}.cls-4{fill:#5c5341;}.cls-5{fill:#42392b;opacity:0.6;}</style></defs><title>tree</title><ellipse class="cls-1" cx="232.65" cy="268.88" rx="27.39" ry="11.35" transform="translate(-61.23 68.73) rotate(-14.88)"/><ellipse class="cls-2" cx="232.09" cy="269.2" rx="21.47" ry="8.9" transform="matrix(0.97, -0.26, 0.26, 0.97, -61.33, 68.6)"/><ellipse class="cls-3" cx="227.47" cy="269.66" rx="13.59" ry="5.63" transform="translate(-61.6 67.43) rotate(-14.88)"/><polygon class="cls-4" points="219.68 266.86 219.31 273.04 186.44 292.14 189.67 279.74 219.68 266.86"/><polygon class="cls-4" points="214.48 237.91 215.23 241.83 186.91 266.52 188.77 257.83 214.48 237.91"/><polygon class="cls-4" points="127.37 224.73 123.62 228.2 158.86 271.14 159.66 255.69 127.37 224.73"/><path class="cls-4" d="M208.9,432.6a130.2,130.2,0,0,1-20.77,5.15c-10.06,1.5-30.79-.3-38.22-3.15-3.54-1.36-8.28-3.62-8.28-3.62l23.54-248.36,19.28-.92,9.8,168.46Z"/><path class="cls-5" d="M208.9,432.6s-11.54,3.7-15.72,4.26c-1.87.25-9.9-80.82-9.52-84.59s-1.3-136.94-1.43-140.18a22.17,22.17,0,0,0,4,.89l8,137.18Z"/><polygon class="cls-5" points="219.41 271.24 190.57 286.99 190.73 289.66 219.31 273.04 219.41 271.24"/><polygon class="cls-4" points="157.92 307.31 131.84 297.28 132.74 293.17 159.66 300 157.92 307.31"/><polygon class="cls-5" points="132.24 295.45 153.75 303.2 153.5 305.62 131.84 297.28 132.24 295.45"/><polygon class="cls-5" points="214.9 240.13 189.11 261.63 189.3 264.41 215.23 241.83 214.9 240.13"/><polygon class="cls-5" points="157.4 264.55 157 268.88 128.72 234.56 130.61 233.32 157.4 264.55"/><path class="cls-1" d="M249.26,239.45c10.25,26.88,50,17.09,46.32-1.32,78.46-5.22,49.28-124.64,7.23-120.92,24.44-23.2-15.13-60.47-59.44-41.05-7-54.89-90.67-57-106.26-24.9C81.79,16.08,22.43,75.14,47.28,109.68,6.49,109-14.89,151.31,19.74,166.29c-30,31.16,35.36,101.44,62.32,82.29,35.73,20.29,72.28-12.46,67.44-32.69C167,229,195.46,222,195.73,213,186.74,232.83,236.16,258.5,249.26,239.45Z"/><path class="cls-2" d="M249.38,233.94c11.14,21.58,44.41,11.48,42.91-1.25,78.46-5.22,63-118.71,10.52-115.48,24.44-23.2-14.91-68.72-59.22-49.3-7-54.89-90.67-57-106.26-24.9C82,7.84,24.61,65.27,49.46,99.81c-40.79-.72-64.34,51.5-29.72,66.48-29.2,30.11,35.58,93.19,62.54,74.05,35.73,20.29,67.49-11.19,62.65-31.41,17.49,13.07,53.28,5.87,53.56-3.13C189.49,225.61,236.28,253,249.38,233.94Z"/><path class="cls-3" d="M249.25,217c4.1,27.83,44.74,21.21,41,2.52,88.55-4.61,58.58-107,12.58-102.32C327.63,93.64,289,26.84,244,46.56c-7.12-55.75-92.08-57.85-107.91-25.28C79.92-14.44,17.45,43.73,42.68,78.81c-41.42-.73-59.52,74.51-22.94,87.48-30.43,31.64,32.94,78.51,60.32,59.07,36.29,20.61,65.53-5.1,60.62-25.64,17.77,13.27,57.9,2.92,58.18-6.21C189.72,213.62,235.95,236.36,249.25,217Z"/></svg>