<svg id="Layer_1" data-name="Layer 1" xmlns="http://www.w3.org/2000/svg" viewBox="0 0 334.54 417.97"><defs><style>.cls-1{fill:#75542f;}.cls-2{fill:#936937;}.cls-3{fill:#b58137;}.cls-4{fill:#3f382b;}.cls-5{fill:#1e1a14;opacity:0.6;}</style></defs><title>tree</title><ellipse class="cls-1" cx="146.99" cy="334.22" rx="5.34" ry="12.88" transform="translate(-215.16 380.62) rotate(-73.56)"/><ellipse class="cls-2" cx="147.25" cy="334.38" rx="4.19" ry="10.1" transform="translate(-215.13 380.98) rotate(-73.56)"/><ellipse class="cls-3" cx="149.42" cy="334.65" rx="2.65" ry="6.39" transform="translate(-213.84 383.26) rotate(-73.56)"/><ellipse class="cls-1" cx="208.78" cy="280.04" rx="12.79" ry="5.3" transform="translate(-77.14 79.38) rotate(-18.23)"/><ellipse class="cls-2" cx="208.48" cy="280.06" rx="10.03" ry="4.16" transform="translate(-77.16 79.29) rotate(-18.23)"/><ellipse class="cls-3" cx="206.55" cy="281.06" rx="6.35" ry="2.63" transform="translate(-77.57 78.74) rotate(-18.23)"/><polygon class="cls-4" points="150.39 334.22 149.74 335.94 167.98 344.17 165.76 339.05 150.39 334.22"/><polygon class="cls-5" points="166.01 342.03 167.37 343.89 149.74 335.94 149.98 335.3 166.01 342.03"/><polygon class="cls-4" points="179.04 292.34 205.19 282.38 206 280.04 180.26 287.53 179.04 292.34"/><polygon class="cls-5" points="205.39 281.78 179.84 289.92 179.04 292.34 205.19 282.38 205.39 281.78"/><ellipse class="cls-1" cx="143.35" cy="249.09" rx="4.67" ry="11.26" transform="translate(-143.61 264.9) rotate(-63.23)"/><ellipse class="cls-2" cx="143.54" cy="249.27" rx="3.66" ry="8.83" transform="translate(-143.66 265.17) rotate(-63.23)"/><ellipse class="cls-3" cx="145.36" cy="249.85" rx="2.32" ry="5.59" transform="translate(-143.18 267.11) rotate(-63.23)"/><polygon class="cls-4" points="147.57 249.09 146.99 252.13 168.84 271.16 167.41 264.46 147.57 249.09"/><polygon class="cls-4" points="188.09 227.82 189.67 228.77 180.42 246.52 179 241.13 188.09 227.82"/><path class="cls-4" d="M158.86,415.61s9.58,2.56,14.82,2.35c6.22-.25,13.83-4,13.83-4l-10-248.82-8.21-.92L165.1,333Z"/><path class="cls-5" d="M158.86,415.61a84,84,0,0,0,9.38,1.93c1.33,0.12,2.62-80.31,2.35-84.08s-0.13-125.83-.3-129.09l-2,1.26S165.51,322.92,165.1,333C163.74,351.34,158.86,415.61,158.86,415.61Z"/><polygon class="cls-5" points="147.24 250.8 166.79 267.08 166.74 269.31 146.99 252.12 147.24 250.8"/><polygon class="cls-5" points="180.64 243.62 180.73 245.92 189.67 228.77 189.09 228.42 180.64 243.62"/><path class="cls-1" d="M102.82,186.29c-58.55,32-95.65-9.92-100.71-30.45C-10.78,103.61,42.7,66.56,78.37,78.6c-10.69-35.47,58.79-55.48,85.34-22.69,65.58-83.24,164-24.49,135.85,17.67,82.36,30.31-2.34,122.86-43.43,92.34C242.57,216.74,133.26,232.88,102.82,186.29Z"/><path class="cls-2" d="M101.67,178.46c-58.55,32-94.54-10.33-99.88-30.78C-10.43,101,42.7,66.56,78.37,78.6,67.68,43.14,136,15.29,162.57,48.08c65.58-83.24,159.59-17,137,25.5,83.54,34.35-3.49,115-44.58,84.51C241.42,208.91,132.12,225.06,101.67,178.46Z"/><path class="cls-3" d="M101.65,165.61c-58.55,32-98.2-7.85-101.11-28.79C-4.92,97.44,42.7,66.56,78.37,78.6,67.68,43.14,135.61,4.1,162.15,36.89c65.58-83.24,165.51-5.47,137.41,36.69,83.54,34.35-5,101-46.14,70.44C239.86,194.84,132.1,212.2,101.65,165.61Z"/></svg>