<svg id="Layer_1" data-name="Layer 1" xmlns="http://www.w3.org/2000/svg" viewBox="0 0 375.24 398.17"><defs><style>.cls-1{fill:#685e45;}.cls-2{fill:#332809;}.cls-3{fill:#3f310b;}.cls-4{fill:#4f3c0c;}.cls-5{fill:#42392b;opacity:0.6;}</style></defs><title>tree</title><polygon class="cls-1" points="148.52 218.41 147.85 221.94 173.26 244.08 171.59 236.28 148.52 218.41"/><polygon class="cls-1" points="226.7 206.57 230.06 209.69 198.44 248.23 197.72 234.36 226.7 206.57"/><ellipse class="cls-2" cx="236.18" cy="267.99" rx="24.58" ry="10.19" transform="translate(-12.6 11.65) rotate(-2.75)"/><ellipse class="cls-3" cx="235.62" cy="267.86" rx="19.27" ry="7.99" transform="translate(-12.59 11.62) rotate(-2.75)"/><ellipse class="cls-4" cx="231.54" cy="268.73" rx="12.2" ry="5.06" transform="translate(-12.64 11.43) rotate(-2.75)"/><polygon class="cls-1" points="199.28 280.68 222.68 271.68 221.88 267.99 197.72 274.13 199.28 280.68"/><polygon class="cls-5" points="222.32 270.05 202.97 277.01 203.24 279.16 222.68 271.68 222.32 270.05"/><polygon class="cls-5" points="152.57 224.31 171.29 239.69 171.12 242.19 152.38 225.92 152.57 224.31"/><polygon class="cls-5" points="199.75 242.31 200.1 246.19 225.48 215.4 223.78 214.29 199.75 242.31"/><ellipse class="cls-2" cx="138.43" cy="248.23" rx="6.26" ry="15.09" transform="translate(-111.13 384.24) rotate(-89.44)"/><ellipse class="cls-3" cx="138.78" cy="248.33" rx="4.91" ry="11.83" transform="translate(-110.89 384.68) rotate(-89.44)"/><ellipse class="cls-4" cx="141.31" cy="247.94" rx="3.1" ry="7.49" transform="translate(-108 386.83) rotate(-89.44)"/><polygon class="cls-1" points="143.99 246.55 144.19 249.93 173.68 267.07 171.38 258.22 143.99 246.55"/><polygon class="cls-5" points="144.09 248.31 169.96 262.44 169.81 264.85 144.19 249.93 144.09 248.31"/><path class="cls-1" d="M153.53,393.12a116.84,116.84,0,0,0,18.64,4.62c9,1.35,28-.7,34.3-2.83l7.43-3.25L192.77,168.79l-17.3-.82-8.79,151.18Z"/><path class="cls-5" d="M153.53,393.12s10.36,3.32,14.11,3.82c1.68,0.23,8.89-72.53,8.54-75.91s0.33-98.6,0-101.5-3.78.82-3.78,0.82-5.19,89.74-5.72,98.79Z"/><path class="cls-2" d="M220.88,209.54c27.24,35.08,129.73,34.34,145.75-18.3,11.49-37.75-73-24.78-73-24.78s82-24.74,81.65-55.69C375,91.43,336.52,86.1,306.12,89.84,307.33,75.45,249.49-24.6,219,47.52c-76.78-99.72-148.5-20.61-152.19,66C23.22,90,3.08,124.75,50.35,162.84-36.62,174.23.6,218.94,74.83,238c44.15,11.36,78.13-6.49,78.45-11.21,10.6,6.93,38,4.54,39.25-10.35C198.92,224.26,219.9,223,220.88,209.54Z"/><path class="cls-3" d="M219.31,198.62c27.24,35.08,130,42.79,146-9.85,11.49-37.75-78.95-32.41-78.95-32.41s89-15.7,88.59-46.66C374.73,90.36,336.26,85,305.86,88.77c1.21-14.39-56.63-114.44-87.15-42.32-76.78-99.72-148.5-20.61-152.19,66C23,88.89,2.82,123.68,50.09,161.77-36.88,173.16,2,213,75.23,229.44c44.48,10,78.13-6.49,78.45-11.21,10.6,6.93,36.39,4.16,37.69-10.73C197.74,215.27,218.33,212.08,219.31,198.62Z"/><path class="cls-4" d="M222.42,177.13c27.24,35.08,120.31,52.65,136.47,10.8,12.42-32.17-44.39-30.07-44.39-30.07S375.37,140.65,375,109.7C374.73,90.36,336.26,85,305.86,88.77c1.21-14.39-56.63-114.44-87.15-42.32-76.78-99.72-148.5-20.61-152.19,66C23,88.89,2.82,123.68,50.09,161.77c-80.49,11.25-39.41,40.88,24,52.61,44.83,8.29,73.14-20.72,73.47-25.44,10.6,6.93,39.39,10.06,40.69-4.83C194.66,191.88,221.43,190.6,222.42,177.13Z"/></svg>